<svg xmlns="http://www.w3.org/2000/svg" xmlns:xlink="http://www.w3.org/1999/xlink" contentStyleType="text/css" height="1922px" preserveAspectRatio="none" style="width:1030px;height:1922px;background:#FFFFFF;" version="1.1" viewBox="0 0 1030 1922" width="1030px" zoomAndPan="magnify"><defs/><g><!--cluster Sistema--><g id="cluster_Sistema"><rect fill="none" height="332" rx="2.5" ry="2.5" style="stroke:#181818;stroke-width:1.0;" width="916.09" x="107.92" y="592.81"/><text fill="#000000" font-family="sans-serif" font-size="14" font-weight="bold" lengthAdjust="spacing" textLength="63.4375" x="534.2463" y="607.8051">Sistema</text></g><g id="elem_Contribuci&#243;n a proyectos en equipo"><ellipse cx="345.606" cy="657.8052" fill="#F1F1F1" rx="140.126" ry="30.4252" style="stroke:#181818;stroke-width:0.5;"/><text fill="#000000" font-family="sans-serif" font-size="14" lengthAdjust="spacing" textLength="249.8672" x="220.6724" y="660.6519">Contribuci&#243;n a proyectos en equipo</text></g><g id="elem_Evaluaci&#243;n del progreso en tiempo real con Copilot Insights"><ellipse cx="345.6105" cy="861.8081" fill="#F1F1F1" rx="221.6905" ry="46.7381" style="stroke:#181818;stroke-width:0.5;"/><text fill="#000000" font-family="sans-serif" font-size="14" lengthAdjust="spacing" textLength="417.7236" x="136.7487" y="864.6548">Evaluaci&#243;n del progreso en tiempo real con Copilot Insights</text></g><g id="elem_Sistema de peer-review an&#243;nimo"><ellipse cx="345.6056" cy="751.8111" fill="#F1F1F1" rx="131.5056" ry="28.7011" style="stroke:#181818;stroke-width:0.5;"/><text fill="#000000" font-family="sans-serif" font-size="14" lengthAdjust="spacing" textLength="231.752" x="229.7296" y="754.6578">Sistema de peer-review an&#243;nimo</text></g><g id="elem_Sistemas de competencia entre grupos"><ellipse cx="817.6555" cy="861.8071" fill="#F1F1F1" rx="152.2355" ry="32.8471" style="stroke:#181818;stroke-width:0.5;"/><text fill="#000000" font-family="sans-serif" font-size="14" lengthAdjust="spacing" textLength="275.1328" x="680.0891" y="864.6538">Sistemas de competencia entre grupos</text></g><g id="elem_Integraci&#243;n con GitHub Classroom para privacidad"><ellipse cx="817.6566" cy="753.8113" fill="#F1F1F1" rx="190.3566" ry="40.4713" style="stroke:#181818;stroke-width:0.5;"/><text fill="#000000" font-family="sans-serif" font-size="14" lengthAdjust="spacing" textLength="353.7461" x="640.7835" y="756.658">Integraci&#243;n con GitHub Classroom para privacidad</text></g><!--entity Alumno--><g id="elem_Alumno"><ellipse cx="34.958" cy="1352.16" fill="#F1F1F1" rx="8" ry="8" style="stroke:#181818;stroke-width:0.5;"/><path d="M34.958,1360.16 L34.958,1387.16 M21.958,1368.16 L47.958,1368.16 M34.958,1387.16 L21.958,1402.16 M34.958,1387.16 L47.958,1402.16 " fill="none" style="stroke:#181818;stroke-width:0.5;"/><text fill="#000000" font-family="sans-serif" font-size="14" lengthAdjust="spacing" textLength="53.416" x="8.25" y="1416.6551">Alumno</text></g><!--entity Profesor--><g id="elem_Profesor"><ellipse cx="34.9604" cy="354.16" fill="#F1F1F1" rx="8" ry="8" style="stroke:#181818;stroke-width:0.5;"/><path d="M34.9604,362.16 L34.9604,389.16 M21.9604,370.16 L47.9604,370.16 M34.9604,389.16 L21.9604,404.16 M34.9604,389.16 L47.9604,404.16 " fill="none" style="stroke:#181818;stroke-width:0.5;"/><text fill="#000000" font-family="sans-serif" font-size="14" lengthAdjust="spacing" textLength="57.9209" x="6" y="418.6551">Profesor</text></g><g id="elem_Sistema de correcci&#243;n autom&#225;tica con tests"><ellipse cx="345.6093" cy="1429.8059" fill="#F1F1F1" rx="168.0793" ry="36.0159" style="stroke:#181818;stroke-width:0.5;"/><text fill="#000000" font-family="sans-serif" font-size="14" lengthAdjust="spacing" textLength="307.9453" x="191.6366" y="1432.6525">Sistema de correcci&#243;n autom&#225;tica con tests</text></g><g id="elem_Calendario de entregas"><ellipse cx="345.614" cy="1522.8068" fill="#F1F1F1" rx="99.934" ry="22.3868" style="stroke:#181818;stroke-width:0.5;"/><text fill="#000000" font-family="sans-serif" font-size="14" lengthAdjust="spacing" textLength="163.9121" x="263.6579" y="1525.6535">Calendario de entregas</text></g><g id="elem_Notificaciones autom&#225;ticas de feedback"><ellipse cx="345.6131" cy="1613.8126" fill="#F1F1F1" rx="154.7131" ry="33.3426" style="stroke:#181818;stroke-width:0.5;"/><text fill="#000000" font-family="sans-serif" font-size="14" lengthAdjust="spacing" textLength="280.2803" x="205.473" y="1616.6593">Notificaciones autom&#225;ticas de feedback</text></g><g id="elem_Sistema de logros y recompensas"><ellipse cx="345.6143" cy="972.8149" fill="#F1F1F1" rx="133.8743" ry="29.1749" style="stroke:#181818;stroke-width:0.5;"/><text fill="#000000" font-family="sans-serif" font-size="14" lengthAdjust="spacing" textLength="236.7422" x="227.2433" y="975.6615">Sistema de logros y recompensas</text></g><g id="elem_Corrector de estilo de c&#243;digo"><ellipse cx="345.6148" cy="1707.813" fill="#F1F1F1" rx="117.9648" ry="25.993" style="stroke:#181818;stroke-width:0.5;"/><text fill="#000000" font-family="sans-serif" font-size="14" lengthAdjust="spacing" textLength="203.0068" x="244.1114" y="1710.6596">Corrector de estilo de c&#243;digo</text></g><g id="elem_Uso de GitHub Copilot"><ellipse cx="345.6098" cy="1790.81" fill="#F1F1F1" rx="95.6998" ry="21.54" style="stroke:#181818;stroke-width:0.5;"/><text fill="#000000" font-family="sans-serif" font-size="14" lengthAdjust="spacing" textLength="154.5332" x="268.3432" y="1793.6566">Uso de GitHub Copilot</text></g><g id="elem_Sistema de seguimiento de productividad"><ellipse cx="345.6124" cy="1881.8105" fill="#F1F1F1" rx="160.5524" ry="34.5105" style="stroke:#181818;stroke-width:0.5;"/><text fill="#000000" font-family="sans-serif" font-size="14" lengthAdjust="spacing" textLength="292.3867" x="199.419" y="1884.6572">Sistema de seguimiento de productividad</text></g><g id="elem_Generador de informes personalizados para alumnos"><ellipse cx="345.608" cy="1078.8076" fill="#F1F1F1" rx="199.438" ry="42.2876" style="stroke:#181818;stroke-width:0.5;"/><text fill="#000000" font-family="sans-serif" font-size="14" lengthAdjust="spacing" textLength="372.333" x="159.4415" y="1081.6543">Generador de informes personalizados para alumnos</text></g><g id="elem_Sistema de retos semanales"><ellipse cx="345.6117" cy="1181.8063" fill="#F1F1F1" rx="115.7817" ry="25.5563" style="stroke:#181818;stroke-width:0.5;"/><text fill="#000000" font-family="sans-serif" font-size="14" lengthAdjust="spacing" textLength="198.3311" x="246.4462" y="1184.653">Sistema de retos semanales</text></g><g id="elem_Live Coding"><ellipse cx="345.6134" cy="1257.8067" fill="#F1F1F1" rx="66.0834" ry="15.6167" style="stroke:#181818;stroke-width:0.5;"/><text fill="#000000" font-family="sans-serif" font-size="14" lengthAdjust="spacing" textLength="81.915" x="301.6559" y="1261.5542">Live Coding</text></g><g id="elem_Asistente virtual con Copilot"><ellipse cx="345.6075" cy="1333.8135" fill="#F1F1F1" rx="115.3675" ry="25.4735" style="stroke:#181818;stroke-width:0.5;"/><text fill="#000000" font-family="sans-serif" font-size="14" lengthAdjust="spacing" textLength="197.4424" x="246.8863" y="1336.6602">Asistente virtual con Copilot</text></g><g id="elem_An&#225;lisis de commits y pull requests"><ellipse cx="345.6131" cy="429.8066" fill="#F1F1F1" rx="139.1831" ry="30.2366" style="stroke:#181818;stroke-width:0.5;"/><text fill="#000000" font-family="sans-serif" font-size="14" lengthAdjust="spacing" textLength="247.8916" x="221.6673" y="432.6533">An&#225;lisis de commits y pull requests</text></g><g id="elem_Asignaci&#243;n de puntuaciones en trabajos en equipo"><ellipse cx="345.6136" cy="535.8107" fill="#F1F1F1" rx="190.7536" ry="40.5507" style="stroke:#181818;stroke-width:0.5;"/><text fill="#000000" font-family="sans-serif" font-size="14" lengthAdjust="spacing" textLength="354.5596" x="168.3338" y="538.6574">Asignaci&#243;n de puntuaciones en trabajos en equipo</text></g><g id="elem_Panel interactivo para profesores"><ellipse cx="345.613" cy="34.8146" fill="#F1F1F1" rx="132.073" ry="28.8146" style="stroke:#181818;stroke-width:0.5;"/><text fill="#000000" font-family="sans-serif" font-size="14" lengthAdjust="spacing" textLength="232.9482" x="229.1389" y="37.6613">Panel interactivo para profesores</text></g><g id="elem_Generador de informes autom&#225;ticos para profesores"><ellipse cx="345.6093" cy="140.8059" fill="#F1F1F1" rx="197.5793" ry="41.9159" style="stroke:#181818;stroke-width:0.5;"/><text fill="#000000" font-family="sans-serif" font-size="14" lengthAdjust="spacing" textLength="368.5322" x="161.3432" y="143.6525">Generador de informes autom&#225;ticos para profesores</text></g><g id="elem_Control de versiones para tareas"><ellipse cx="345.6128" cy="245.8086" fill="#F1F1F1" rx="130.4428" ry="28.4886" style="stroke:#181818;stroke-width:0.5;"/><text fill="#000000" font-family="sans-serif" font-size="14" lengthAdjust="spacing" textLength="229.5098" x="230.8579" y="248.6552">Control de versiones para tareas</text></g><g id="elem_Sistema de detecci&#243;n de plagio"><ellipse cx="345.6073" cy="336.8095" fill="#F1F1F1" rx="126.0473" ry="27.6095" style="stroke:#181818;stroke-width:0.5;"/><text fill="#000000" font-family="sans-serif" font-size="14" lengthAdjust="spacing" textLength="220.2129" x="235.5008" y="339.6561">Sistema de detecci&#243;n de plagio</text></g><!--link Alumno to Contribuci?n a proyectos en equipo--><g id="link_Alumno_Contribuci&#243;n a proyectos en equipo"><path d="M36.96,1343.3 C40.85,1207.02 56.95,753.28 99.92,705.81 C126.79,676.12 160.268,662.5842 199.638,656.1742 " fill="none" id="Alumno-to-Contribuci&#243;n a proyectos en equipo" style="stroke:#181818;stroke-width:1.0;"/><polygon fill="#181818" points="205.56,655.21,196.0342,652.7083,200.625,656.0135,197.3198,660.6043,205.56,655.21" style="stroke:#181818;stroke-width:1.0;"/></g><!--link Alumno to Sistema de correcci?n autom?tica con tests--><g id="link_Alumno_Sistema de correcci&#243;n autom&#225;tica con tests"><path d="M62.01,1385.86 C94.71,1390.95 147.3213,1399.1276 202.6613,1407.7376 " fill="none" id="Alumno-to-Sistema de correcci&#243;n autom&#225;tica con tests" style="stroke:#181818;stroke-width:1.0;"/><polygon fill="#181818" points="208.59,1408.66,200.3119,1403.3239,203.6494,1407.8913,199.0821,1411.2288,208.59,1408.66" style="stroke:#181818;stroke-width:1.0;"/></g><!--link Alumno to Calendario de entregas--><g id="link_Alumno_Calendario de entregas"><path d="M50.48,1420.21 C60.87,1442.35 77.08,1468.7 99.92,1483.81 C142.62,1512.05 192.5024,1522.0749 240.0824,1525.1349 " fill="none" id="Alumno-to-Calendario de entregas" style="stroke:#181818;stroke-width:1.0;"/><polygon fill="#181818" points="246.07,1525.52,237.3453,1520.9506,241.0803,1525.1991,236.8318,1528.9341,246.07,1525.52" style="stroke:#181818;stroke-width:1.0;"/></g><!--link Alumno to Notificaciones autom?ticas de feedback--><g id="link_Alumno_Notificaciones autom&#225;ticas de feedback"><path d="M38.77,1420.44 C43.91,1461.89 58.52,1526.62 99.92,1562.81 C126.06,1585.66 153.9132,1597.8527 187.8932,1605.6827 " fill="none" id="Alumno-to-Notificaciones autom&#225;ticas de feedback" style="stroke:#181818;stroke-width:1.0;"/><polygon fill="#181818" points="193.74,1607.03,185.868,1601.1112,188.8677,1605.9073,184.0716,1608.9069,193.74,1607.03" style="stroke:#181818;stroke-width:1.0;"/></g><!--link Alumno to Sistema de logros y recompensas--><g id="link_Alumno_Sistema de logros y recompensas"><path d="M37.37,1343.2 C41.27,1259.3 55.04,1064.2 99.92,1018.81 C129.25,989.15 165.2879,976.1417 206.2279,970.4117 " fill="none" id="Alumno-to-Sistema de logros y recompensas" style="stroke:#181818;stroke-width:1.0;"/><polygon fill="#181818" points="212.17,969.58,202.7024,966.8661,207.2183,970.273,203.8113,974.7889,212.17,969.58" style="stroke:#181818;stroke-width:1.0;"/></g><!--link Alumno to Corrector de estilo de c?digo--><g id="link_Alumno_Corrector de estilo de c&#243;digo"><path d="M39.45,1420.32 C46.53,1489.68 65,1631.54 99.92,1664.81 C134.35,1697.61 178.5285,1709.6688 224.4785,1713.2888 " fill="none" id="Alumno-to-Corrector de estilo de c&#243;digo" style="stroke:#181818;stroke-width:1.0;"/><polygon fill="#181818" points="230.46,1713.76,221.802,1709.0655,225.4754,1713.3673,221.1736,1717.0408,230.46,1713.76" style="stroke:#181818;stroke-width:1.0;"/></g><!--link Alumno to Uso de GitHub Copilot--><g id="link_Alumno_Uso de GitHub Copilot"><path d="M37.16,1420.17 C40.64,1505.07 53.67,1705 99.92,1750.81 C140.75,1791.25 199.5403,1800.4481 252.1903,1799.9381 " fill="none" id="Alumno-to-Uso de GitHub Copilot" style="stroke:#181818;stroke-width:1.0;"/><polygon fill="#181818" points="258.19,1799.88,249.1517,1795.9674,253.1902,1799.9284,249.2292,1803.967,258.19,1799.88" style="stroke:#181818;stroke-width:1.0;"/></g><!--link Alumno to Sistema de seguimiento de productividad--><g id="link_Alumno_Sistema de seguimiento de productividad"><path d="M36.01,1420.35 C36.96,1517.86 44.8,1770.83 99.92,1829.81 C122.68,1854.16 147.976,1867.1078 180.376,1875.3678 " fill="none" id="Alumno-to-Sistema de seguimiento de productividad" style="stroke:#181818;stroke-width:1.0;"/><polygon fill="#181818" points="186.19,1876.85,178.4571,1870.7506,181.345,1875.6148,176.4808,1878.5027,186.19,1876.85" style="stroke:#181818;stroke-width:1.0;"/></g><!--link Alumno to Generador de informes personalizados para alumnos--><g id="link_Alumno_Generador de informes personalizados para alumnos"><path d="M41.2,1343.62 C50.34,1282.64 70.99,1167.25 99.92,1138.81 C118.71,1120.33 136.5827,1109.3118 161.5327,1100.0818 " fill="none" id="Alumno-to-Generador de informes personalizados para alumnos" style="stroke:#181818;stroke-width:1.0;"/><polygon fill="#181818" points="167.16,1098,157.3312,1097.3711,162.4706,1099.7348,160.1069,1104.8742,167.16,1098" style="stroke:#181818;stroke-width:1.0;"/></g><!--link Alumno to Sistema de retos semanales--><g id="link_Alumno_Sistema de retos semanales"><path d="M40.99,1343.24 C47.85,1306.97 63.73,1254.01 99.92,1224.81 C136.17,1195.56 179.4181,1183.9101 224.1981,1179.5601 " fill="none" id="Alumno-to-Sistema de retos semanales" style="stroke:#181818;stroke-width:1.0;"/><polygon fill="#181818" points="230.17,1178.98,220.8254,1175.8689,225.1934,1179.4634,221.5989,1183.8314,230.17,1178.98" style="stroke:#181818;stroke-width:1.0;"/></g><!--link Alumno to Live Coding--><g id="link_Alumno_Live Coding"><path d="M53.64,1343.17 C64.32,1324.29 79.79,1303.05 99.92,1290.81 C155.05,1257.3 223.9314,1251.6594 276.2814,1252.7994 " fill="none" id="Alumno-to-Live Coding" style="stroke:#181818;stroke-width:1.0;"/><polygon fill="#181818" points="282.28,1252.93,273.3692,1248.735,277.2812,1252.8211,273.195,1256.7331,282.28,1252.93" style="stroke:#181818;stroke-width:1.0;"/></g><!--link Alumno to Asistente virtual con Copilot--><g id="link_Alumno_Asistente virtual con Copilot"><path d="M62.01,1377.76 C103.14,1371.36 179.2113,1359.5321 244.3413,1349.4021 " fill="none" id="Alumno-to-Asistente virtual con Copilot" style="stroke:#181818;stroke-width:1.0;"/><polygon fill="#181818" points="250.27,1348.48,240.7622,1345.9107,245.3294,1349.2484,241.9917,1353.8157,250.27,1348.48" style="stroke:#181818;stroke-width:1.0;"/></g><!--link Profesor to Contribuci?n a proyectos en equipo--><g id="link_Profesor_Contribuci&#243;n a proyectos en equipo"><path d="M36.83,422.13 C40.03,469.2 52.65,548.39 99.92,593.81 C130.16,622.87 166.0333,637.8466 206.4733,646.8466 " fill="none" id="Profesor-to-Contribuci&#243;n a proyectos en equipo" style="stroke:#181818;stroke-width:1.0;"/><polygon fill="#181818" points="212.33,648.15,204.4139,642.2904,207.4494,647.0638,202.676,650.0993,212.33,648.15" style="stroke:#181818;stroke-width:1.0;"/></g><!--link Profesor to An?lisis de commits y pull requests--><g id="link_Profesor_An&#225;lisis de commits y pull requests"><path d="M64.17,388.01 C101.6,393.59 163.9856,402.8854 223.8256,411.8054 " fill="none" id="Profesor-to-An&#225;lisis de commits y pull requests" style="stroke:#181818;stroke-width:1.0;"/><polygon fill="#181818" points="229.76,412.69,221.4481,407.4068,224.8146,411.9528,220.2686,415.3194,229.76,412.69" style="stroke:#181818;stroke-width:1.0;"/></g><!--link Profesor to Asignaci?n de puntuaciones en trabajos en equipo--><g id="link_Profesor_Asignaci&#243;n de puntuaciones en trabajos en equipo"><path d="M53.62,422.41 C64.38,441.8 79.92,464.04 99.92,477.81 C124.1,494.46 146.7175,504.6645 175.3875,513.1645 " fill="none" id="Profesor-to-Asignaci&#243;n de puntuaciones en trabajos en equipo" style="stroke:#181818;stroke-width:1.0;"/><polygon fill="#181818" points="181.14,514.87,173.6482,508.4768,176.3462,513.4488,171.3743,516.1468,181.14,514.87" style="stroke:#181818;stroke-width:1.0;"/></g><!--link Profesor to Panel interactivo para profesores--><g id="link_Profesor_Panel interactivo para profesores"><path d="M38.89,345.37 C45.26,272.48 62.86,118.17 99.92,81.81 C129.95,52.35 166.53,39.3363 207.73,33.4663 " fill="none" id="Profesor-to-Panel interactivo para profesores" style="stroke:#181818;stroke-width:1.0;"/><polygon fill="#181818" points="213.67,32.62,204.1958,29.9295,208.72,33.3253,205.3242,37.8495,213.67,32.62" style="stroke:#181818;stroke-width:1.0;"/></g><!--link Profesor to Generador de informes autom?ticos para profesores--><g id="link_Profesor_Generador de informes autom&#225;ticos para profesores"><path d="M38.74,345.18 C43.87,303.29 58.45,237.4 99.92,199.81 C119.75,181.83 138.4403,171.0721 164.0103,162.0721 " fill="none" id="Profesor-to-Generador de informes autom&#225;ticos para profesores" style="stroke:#181818;stroke-width:1.0;"/><polygon fill="#181818" points="169.67,160.08,159.8525,159.295,164.9536,161.74,162.5086,166.8412,169.67,160.08" style="stroke:#181818;stroke-width:1.0;"/></g><!--link Profesor to Control de versiones para tareas--><g id="link_Profesor_Control de versiones para tareas"><path d="M53.81,345.18 C64.54,326.21 80,304.71 99.92,291.81 C134.39,269.49 171.0449,258.3452 210.9749,251.9752 " fill="none" id="Profesor-to-Control de versiones para tareas" style="stroke:#181818;stroke-width:1.0;"/><polygon fill="#181818" points="216.9,251.03,207.3822,248.4978,211.9624,251.8177,208.6425,256.3979,216.9,251.03" style="stroke:#181818;stroke-width:1.0;"/></g><!--link Profesor to Sistema de detecci?n de plagio--><g id="link_Profesor_Sistema de detecci&#243;n de plagio"><path d="M64.17,379.51 C103.98,373.45 172.8084,362.9731 235.1384,353.4831 " fill="none" id="Profesor-to-Sistema de detecci&#243;n de plagio" style="stroke:#181818;stroke-width:1.0;"/><polygon fill="#181818" points="241.07,352.58,231.5705,349.9802,236.127,353.3326,232.7746,357.8891,241.07,352.58" style="stroke:#181818;stroke-width:1.0;"/></g><!--link Profesor to Sistema de logros y recompensas--><g id="link_Profesor_Sistema de logros y recompensas"><path d="M37.91,422.17 C44.24,539.52 65.77,887.96 99.92,924.81 C128.54,955.69 164.7806,969.1791 206.1006,975.0991 " fill="none" id="Profesor-to-Sistema de logros y recompensas" style="stroke:#181818;stroke-width:1.0;"/><polygon fill="#181818" points="212.04,975.95,203.6983,970.714,207.0905,975.2409,202.5637,978.6332,212.04,975.95" style="stroke:#181818;stroke-width:1.0;"/></g><!--SRC=[bLHRRjj03FpNAOZyfFxm5GeOHfi6A8e0GGz0QscLxUvIsOUAjEXXSeOSmHShTzTkP2SEqYzBq0mvmo5jQPiW2GGUlYKm7AXFBBxhi4yIO6Mpyx9_kGcofIYXwmeA_M09Bcuv9d9u0RyxW4luc7slVBHiq524jRZizPSya8MUV0gYm7ThqIVUv9vtZnuGnY3tMbGQyYxpA8k2-p2XpTXGHYieRWWgei0IanjLEg5M5g-zHhQIuDh7uYRM0djzIeQHA2m3JKm_0RrMP2TpJ2oWNjn8YTG5Gb5BC8GyIYjsxHCDOI-djBpYz2blO6qnnY3YOCHGpF2a89t0ellJTMs8i5o-VwFlEM6clvUWWzypSnAtUqZSOnMIA1R3HwtGaZSOM0gvUXdm1FD54c-rHibCKvfLhSFO4faDzZ_EIhAQXcg_rn3gu7myxR2keilw514nQKBLo-xHy73YzMkitmv3RN6UxHrfoEnOZLMMJj9aNTwfpNrEkY9F0KtJm7uhmQdPaKAic_fBFyMM75PMFDipK8agwfiIwGJtcITIrORzSFnX5Ki5tHsOEAHylAwBhZiSrd-io35bvNSFbhNBVeCTfnBAcArLoNUvBSS9Hu_4_xiinVgK3tjGZYlW1h-_rlG6lHuagosz29sx79Q_WUXPnvTZUDgvGmZdAzJHY2tyITDhOYideVuDFCFFaZDwrFsJMui3oolm5nVxBm00]--></g></svg>