<svg xmlns="http://www.w3.org/2000/svg" xmlns:xlink="http://www.w3.org/1999/xlink" contentStyleType="text/css" height="356px" preserveAspectRatio="none" style="width:779px;height:356px;background:#FFFFFF;" version="1.1" viewBox="0 0 779 356" width="779px" zoomAndPan="magnify"><defs/><g><line style="stroke:#181818;stroke-width:0.5;stroke-dasharray:5.0,5.0;" x1="34" x2="34" y1="81.2969" y2="276.0938"/><line style="stroke:#181818;stroke-width:0.5;stroke-dasharray:5.0,5.0;" x1="266.1426" x2="266.1426" y1="81.2969" y2="276.0938"/><line style="stroke:#181818;stroke-width:0.5;stroke-dasharray:5.0,5.0;" x1="486.0942" x2="486.0942" y1="81.2969" y2="276.0938"/><line style="stroke:#181818;stroke-width:0.5;stroke-dasharray:5.0,5.0;" x1="755.8853" x2="755.8853" y1="81.2969" y2="276.0938"/><text fill="#000000" font-family="sans-serif" font-size="14" lengthAdjust="spacing" textLength="53.2041" x="5" y="77.9951">Usuario</text><ellipse cx="34.6021" cy="13.5" fill="#E2E2F0" rx="8" ry="8" style="stroke:#181818;stroke-width:0.5;"/><path d="M34.6021,21.5 L34.6021,48.5 M21.6021,29.5 L47.6021,29.5 M34.6021,48.5 L21.6021,63.5 M34.6021,48.5 L47.6021,63.5 " fill="none" style="stroke:#181818;stroke-width:0.5;"/><text fill="#000000" font-family="sans-serif" font-size="14" lengthAdjust="spacing" textLength="53.2041" x="5" y="288.0889">Usuario</text><ellipse cx="34.6021" cy="299.8906" fill="#E2E2F0" rx="8" ry="8" style="stroke:#181818;stroke-width:0.5;"/><path d="M34.6021,307.8906 L34.6021,334.8906 M21.6021,315.8906 L47.6021,315.8906 M34.6021,334.8906 L21.6021,349.8906 M34.6021,334.8906 L47.6021,349.8906 " fill="none" style="stroke:#181818;stroke-width:0.5;"/><rect fill="#E2E2F0" height="30.2969" rx="2.5" ry="2.5" style="stroke:#181818;stroke-width:0.5;" width="77.1094" x="228.1426" y="50"/><text fill="#000000" font-family="sans-serif" font-size="14" lengthAdjust="spacing" textLength="63.1094" x="235.1426" y="69.9951">Frontend</text><rect fill="#E2E2F0" height="30.2969" rx="2.5" ry="2.5" style="stroke:#181818;stroke-width:0.5;" width="77.1094" x="228.1426" y="275.0938"/><text fill="#000000" font-family="sans-serif" font-size="14" lengthAdjust="spacing" textLength="63.1094" x="235.1426" y="295.0889">Frontend</text><rect fill="#E2E2F0" height="30.2969" rx="2.5" ry="2.5" style="stroke:#181818;stroke-width:0.5;" width="74.3613" x="449.0942" y="50"/><text fill="#000000" font-family="sans-serif" font-size="14" lengthAdjust="spacing" textLength="60.3613" x="456.0942" y="69.9951">Backend</text><rect fill="#E2E2F0" height="30.2969" rx="2.5" ry="2.5" style="stroke:#181818;stroke-width:0.5;" width="74.3613" x="449.0942" y="275.0938"/><text fill="#000000" font-family="sans-serif" font-size="14" lengthAdjust="spacing" textLength="60.3613" x="456.0942" y="295.0889">Backend</text><rect fill="#E2E2F0" height="30.2969" rx="2.5" ry="2.5" style="stroke:#181818;stroke-width:0.5;" width="34.2275" x="738.8853" y="50"/><text fill="#000000" font-family="sans-serif" font-size="14" lengthAdjust="spacing" textLength="20.2275" x="745.8853" y="69.9951">Git</text><rect fill="#E2E2F0" height="30.2969" rx="2.5" ry="2.5" style="stroke:#181818;stroke-width:0.5;" width="34.2275" x="738.8853" y="275.0938"/><text fill="#000000" font-family="sans-serif" font-size="14" lengthAdjust="spacing" textLength="20.2275" x="745.8853" y="295.0889">Git</text><polygon fill="#181818" points="254.6973,108.4297,264.6973,112.4297,254.6973,116.4297,258.6973,112.4297" style="stroke:#181818;stroke-width:1;"/><line style="stroke:#181818;stroke-width:1;" x1="34.6021" x2="260.6973" y1="112.4297" y2="112.4297"/><text fill="#000000" font-family="sans-serif" font-size="13" lengthAdjust="spacing" textLength="182.6157" x="41.6021" y="107.3638">Solicita Playback del C&#243;digo</text><polygon fill="#181818" points="474.2749,137.5625,484.2749,141.5625,474.2749,145.5625,478.2749,141.5625" style="stroke:#181818;stroke-width:1;"/><line style="stroke:#181818;stroke-width:1;" x1="266.6973" x2="480.2749" y1="141.5625" y2="141.5625"/><text fill="#000000" font-family="sans-serif" font-size="13" lengthAdjust="spacing" textLength="195.5776" x="273.6973" y="136.4966">GET /api/playback?repoUrl=...</text><polygon fill="#181818" points="743.999,166.6953,753.999,170.6953,743.999,174.6953,747.999,170.6953" style="stroke:#181818;stroke-width:1;"/><line style="stroke:#181818;stroke-width:1;" x1="486.2749" x2="749.999" y1="170.6953" y2="170.6953"/><text fill="#000000" font-family="sans-serif" font-size="13" lengthAdjust="spacing" textLength="189.9282" x="493.2749" y="165.6294">Obtener historial de commits</text><polygon fill="#181818" points="497.2749,195.8281,487.2749,199.8281,497.2749,203.8281,493.2749,199.8281" style="stroke:#181818;stroke-width:1;"/><line style="stroke:#181818;stroke-width:1;stroke-dasharray:2.0,2.0;" x1="491.2749" x2="754.999" y1="199.8281" y2="199.8281"/><text fill="#000000" font-family="sans-serif" font-size="13" lengthAdjust="spacing" textLength="245.7241" x="503.2749" y="194.7622">Devuelve lista de commits ordenados</text><polygon fill="#181818" points="277.6973,224.9609,267.6973,228.9609,277.6973,232.9609,273.6973,228.9609" style="stroke:#181818;stroke-width:1;"/><line style="stroke:#181818;stroke-width:1;stroke-dasharray:2.0,2.0;" x1="271.6973" x2="485.2749" y1="228.9609" y2="228.9609"/><text fill="#000000" font-family="sans-serif" font-size="13" lengthAdjust="spacing" textLength="187.9604" x="283.6973" y="223.895">Devuelve datos del playback</text><polygon fill="#181818" points="45.6021,254.0938,35.6021,258.0938,45.6021,262.0938,41.6021,258.0938" style="stroke:#181818;stroke-width:1;"/><line style="stroke:#181818;stroke-width:1;stroke-dasharray:2.0,2.0;" x1="39.6021" x2="265.6973" y1="258.0938" y2="258.0938"/><text fill="#000000" font-family="sans-serif" font-size="13" lengthAdjust="spacing" textLength="208.0952" x="51.6021" y="253.0278">Reproduce evoluci&#243;n del c&#243;digo</text><!--SRC=[NOz1JWCn34NtEONLVQVxIe0qq7O90de0Dx708eqZ9pCIv-eHUZ7Sq21W5Id_vUL_z5KKzcL2PN4PjRBdZAd2OgkIAgMm02omtVmDH_GVFHl_PJkkxTvEvwvgMDwQ0zRm8j70Yl0KyVDW5WWKuVvy2lmcpX03nmkusxp22ZElyXMyKygortWp38CR6sW_6Fbui9gayCx5nZ16KuANuv5hSHTasPqFD4yKPu9eAFx2G3HGmY2bcNlP7pvWbTAQzZQjgd5ztngUAQk4oHFGB77oV3wbziH_Z_i2]--></g></svg>