<svg xmlns="http://www.w3.org/2000/svg" xmlns:xlink="http://www.w3.org/1999/xlink" contentStyleType="text/css" height="847px" preserveAspectRatio="none" style="width:990px;height:847px;background:#FFFFFF;" version="1.1" viewBox="0 0 990 847" width="990px" zoomAndPan="magnify"><title>Caso de Uso: Ver Mapa de Calor de Contribuciones</title><defs/><g><text fill="#000000" font-family="sans-serif" font-size="14" font-weight="bold" lengthAdjust="spacing" textLength="400.0117" x="288.2517" y="22.9951">Caso de Uso: Ver Mapa de Calor de Contribuciones</text><ellipse cx="577" cy="53.2969" fill="#222222" rx="10" ry="10" style="stroke:#222222;stroke-width:1;"/><g id="IngresoDatos"><rect fill="#F1F1F1" height="50" rx="12.5" ry="12.5" style="stroke:#181818;stroke-width:0.5;" width="112.8252" x="520.5" y="140.2969"/><line style="stroke:#181818;stroke-width:0.5;" x1="520.5" x2="633.3252" y1="166.5938" y2="166.5938"/><text fill="#000000" font-family="sans-serif" font-size="14" lengthAdjust="spacing" textLength="92.8252" x="530.5" y="158.292">IngresoDatos</text></g><g id="SeleccionRamaFechas"><rect fill="#F1F1F1" height="50" rx="12.5" ry="12.5" style="stroke:#181818;stroke-width:0.5;" width="176.3584" x="262" y="282.2969"/><line style="stroke:#181818;stroke-width:0.5;" x1="262" x2="438.3584" y1="308.5938" y2="308.5938"/><text fill="#000000" font-family="sans-serif" font-size="14" lengthAdjust="spacing" textLength="156.3584" x="272" y="300.292">SeleccionRamaFechas</text></g><g id="SolicitarMapa"><rect fill="#F1F1F1" height="50" rx="12.5" ry="12.5" style="stroke:#181818;stroke-width:0.5;" width="114.7666" x="292.5" y="424.2969"/><line style="stroke:#181818;stroke-width:0.5;" x1="292.5" x2="407.2666" y1="450.5938" y2="450.5938"/><text fill="#000000" font-family="sans-serif" font-size="14" lengthAdjust="spacing" textLength="94.7666" x="302.5" y="442.292">SolicitarMapa</text></g><g id="ObtenerDatos"><rect fill="#F1F1F1" height="50" rx="12.5" ry="12.5" style="stroke:#181818;stroke-width:0.5;" width="117.959" x="291" y="566.2969"/><line style="stroke:#181818;stroke-width:0.5;" x1="291" x2="408.959" y1="592.5938" y2="592.5938"/><text fill="#000000" font-family="sans-serif" font-size="14" lengthAdjust="spacing" textLength="97.959" x="301" y="584.292">ObtenerDatos</text></g><g id="MostrarHeatmap"><rect fill="#F1F1F1" height="50" rx="12.5" ry="12.5" style="stroke:#181818;stroke-width:0.5;" width="137.8311" x="7" y="708.2969"/><line style="stroke:#181818;stroke-width:0.5;" x1="7" x2="144.8311" y1="734.5938" y2="734.5938"/><text fill="#000000" font-family="sans-serif" font-size="14" lengthAdjust="spacing" textLength="117.8311" x="17" y="726.292">MostrarHeatmap</text></g><ellipse cx="349" cy="830.2969" fill="none" rx="11" ry="11" style="stroke:#222222;stroke-width:1;"/><ellipse cx="349" cy="830.2969" fill="#222222" rx="6" ry="6" style="stroke:#222222;stroke-width:1;"/><g id="MostrarError"><rect fill="#F1F1F1" height="50" rx="12.5" ry="12.5" style="stroke:#181818;stroke-width:0.5;" width="108.1973" x="584" y="282.2969"/><line style="stroke:#181818;stroke-width:0.5;" x1="584" x2="692.1973" y1="308.5938" y2="308.5938"/><text fill="#000000" font-family="sans-serif" font-size="14" lengthAdjust="spacing" textLength="88.1973" x="594" y="300.292">MostrarError</text></g><g id="MostrarAviso"><rect fill="#F1F1F1" height="50" rx="12.5" ry="12.5" style="stroke:#181818;stroke-width:0.5;" width="111.1299" x="568.5" y="708.2969"/><line style="stroke:#181818;stroke-width:0.5;" x1="568.5" x2="679.6299" y1="734.5938" y2="734.5938"/><text fill="#000000" font-family="sans-serif" font-size="14" lengthAdjust="spacing" textLength="91.1299" x="578.5" y="726.292">MostrarAviso</text></g><g id="elem_GMN2"><path d="M668,152.7969 L668,161.2969 L633.9,165.2969 L668,169.2969 L668,177.9297 A0,0 0 0 0 668,177.9297 L983.5151,177.9297 A0,0 0 0 0 983.5151,177.9297 L983.5151,162.7969 L973.5151,152.7969 L668,152.7969 A0,0 0 0 0 668,152.7969 " fill="#FEFFDD" style="stroke:#181818;stroke-width:0.5;"/><path d="M973.5151,152.7969 L973.5151,162.7969 L983.5151,162.7969 L973.5151,152.7969 " fill="#FEFFDD" style="stroke:#181818;stroke-width:0.5;"/><ellipse cx="679.5" cy="165.4297" fill="#000000" rx="2.5" ry="2.5" style="stroke:#000000;stroke-width:0;"/><text fill="#000000" font-family="sans-serif" font-size="13" lengthAdjust="spacing" textLength="282.5151" x="686" y="169.8638">El usuario debe tener acceso al repositorio.</text></g><g id="elem_GMN5"><path d="M180,720.7969 L180,729.2969 L145.15,733.2969 L180,737.2969 L180,745.9297 A0,0 0 0 0 180,745.9297 L534.2866,745.9297 A0,0 0 0 0 534.2866,745.9297 L534.2866,730.7969 L524.2866,720.7969 L180,720.7969 A0,0 0 0 0 180,720.7969 " fill="#FEFFDD" style="stroke:#181818;stroke-width:0.5;"/><path d="M524.2866,720.7969 L524.2866,730.7969 L534.2866,730.7969 L524.2866,720.7969 " fill="#FEFFDD" style="stroke:#181818;stroke-width:0.5;"/><ellipse cx="191.5" cy="733.4297" fill="#000000" rx="2.5" ry="2.5" style="stroke:#000000;stroke-width:0;"/><text fill="#000000" font-family="sans-serif" font-size="13" lengthAdjust="spacing" textLength="321.2866" x="198" y="737.8638">Se visualiza el mapa de calor con contribuciones.</text></g><!--link *start* to IngresoDatos--><g id="link_*start*_IngresoDatos"><path d="M577,63.2969 C577,79.9269 577,109.9569 577,134.1669 " fill="none" id="*start*-to-IngresoDatos" style="stroke:#181818;stroke-width:1;"/><polygon fill="#181818" points="577,140.1669,581,131.1669,577,135.1669,573,131.1669,577,140.1669" style="stroke:#181818;stroke-width:1;"/><text fill="#000000" font-family="sans-serif" font-size="13" lengthAdjust="spacing" textLength="229.6646" x="578" y="106.3638">Usuario ingresa URL del repositorio</text></g><!--link IngresoDatos to SeleccionRamaFechas--><g id="link_IngresoDatos_SeleccionRamaFechas"><path d="M520.13,166.5069 C474.42,169.7769 411.65,181.7469 373,220.2969 C356.81,236.4469 352.1069,256.6843 350.6369,275.9343 " fill="none" id="IngresoDatos-to-SeleccionRamaFechas" style="stroke:#181818;stroke-width:1;"/><polygon fill="#181818" points="350.18,281.9169,354.8537,273.2476,350.5607,276.9314,346.8769,272.6384,350.18,281.9169" style="stroke:#181818;stroke-width:1;"/><text fill="#000000" font-family="sans-serif" font-size="13" lengthAdjust="spacing" textLength="185.3833" x="374" y="233.3638">Sistema permite seleccionar</text><text fill="#000000" font-family="sans-serif" font-size="13" lengthAdjust="spacing" textLength="92.5996" x="420.3918" y="248.4966">rama y fechas</text></g><!--link SeleccionRamaFechas to SolicitarMapa--><g id="link_SeleccionRamaFechas_SolicitarMapa"><path d="M350,332.3669 C350,358.0069 350,392.3769 350,418.0769 " fill="none" id="SeleccionRamaFechas-to-SolicitarMapa" style="stroke:#181818;stroke-width:1;"/><polygon fill="#181818" points="350,424.0769,354,415.0769,350,419.0769,346,415.0769,350,424.0769" style="stroke:#181818;stroke-width:1;"/><text fill="#000000" font-family="sans-serif" font-size="13" lengthAdjust="spacing" textLength="124.4775" x="351" y="375.3638">Usuario solicita ver</text><text fill="#000000" font-family="sans-serif" font-size="13" lengthAdjust="spacing" textLength="109.1289" x="358.6743" y="390.4966">el mapa de calor</text></g><!--link SolicitarMapa to ObtenerDatos--><g id="link_SolicitarMapa_ObtenerDatos"><path d="M350,474.3669 C350,500.0069 350,534.3769 350,560.0769 " fill="none" id="SolicitarMapa-to-ObtenerDatos" style="stroke:#181818;stroke-width:1;"/><polygon fill="#181818" points="350,566.0769,354,557.0769,350,561.0769,346,557.0769,350,566.0769" style="stroke:#181818;stroke-width:1;"/><text fill="#000000" font-family="sans-serif" font-size="13" lengthAdjust="spacing" textLength="145.8184" x="377.9934" y="517.3638">Sistema obtiene datos</text><text fill="#000000" font-family="sans-serif" font-size="13" lengthAdjust="spacing" textLength="199.8052" x="351" y="532.4966">de contribuciones desde la API</text></g><!--link ObtenerDatos to MostrarHeatmap--><g id="link_ObtenerDatos_MostrarHeatmap"><path d="M302.9,616.3669 C252.71,642.0069 179.0532,679.6474 128.7432,705.3474 " fill="none" id="ObtenerDatos-to-MostrarHeatmap" style="stroke:#181818;stroke-width:1;"/><polygon fill="#181818" points="123.4,708.0769,133.2345,707.5448,127.8527,705.8023,129.5952,700.4205,123.4,708.0769" style="stroke:#181818;stroke-width:1;"/><text fill="#000000" font-family="sans-serif" font-size="13" lengthAdjust="spacing" textLength="188.6333" x="239" y="659.3638">Sistema muestra el heatmap</text><text fill="#000000" font-family="sans-serif" font-size="13" lengthAdjust="spacing" textLength="123.0811" x="271.7761" y="674.4966">con contribuciones</text></g><!--link MostrarHeatmap to *end*--><g id="link_MostrarHeatmap_*end*"><path d="M145.24,758.3969 C212.22,781.6969 302.3333,813.055 333.2833,823.825 " fill="none" id="MostrarHeatmap-to-*end*" style="stroke:#181818;stroke-width:1;"/><polygon fill="#181818" points="338.95,825.7969,331.7645,819.0612,334.2277,824.1536,329.1353,826.6168,338.95,825.7969" style="stroke:#181818;stroke-width:1;"/></g><!--link IngresoDatos to MostrarError--><g id="link_IngresoDatos_MostrarError"><path d="M570.5,190.4469 C566.99,208.3569 565,232.9269 574,252.2969 C579.39,263.8969 584.0226,270.0755 593.8326,278.2155 " fill="none" id="IngresoDatos-to-MostrarError" style="stroke:#181818;stroke-width:1;"/><polygon fill="#181818" points="598.45,282.0469,594.0781,273.2215,594.6022,278.8541,588.9696,279.3781,598.45,282.0469" style="stroke:#181818;stroke-width:1;"/><text fill="#000000" font-family="sans-serif" font-size="13" lengthAdjust="spacing" textLength="80.8755" x="575" y="240.8638">URL inv&#225;lida</text></g><!--link MostrarError to IngresoDatos--><g id="link_MostrarError_IngresoDatos"><path d="M653.22,282.1469 C662.41,264.2369 670.51,239.6669 660,220.2969 C653.36,208.0569 647.5837,201.5128 635.9937,193.6928 " fill="none" id="MostrarError-to-IngresoDatos" style="stroke:#181818;stroke-width:1;"/><polygon fill="#181818" points="631.02,190.3369,636.2434,198.6865,635.1648,193.1334,640.7179,192.0549,631.02,190.3369" style="stroke:#181818;stroke-width:1;"/><text fill="#000000" font-family="sans-serif" font-size="13" lengthAdjust="spacing" textLength="151.2075" x="665" y="240.8638">Se solicita corregir URL</text></g><!--link ObtenerDatos to MostrarAviso--><g id="link_ObtenerDatos_MostrarAviso"><path d="M397.1,616.3669 C447.29,642.0069 520.9468,679.6474 571.2568,705.3474 " fill="none" id="ObtenerDatos-to-MostrarAviso" style="stroke:#181818;stroke-width:1;"/><polygon fill="#181818" points="576.6,708.0769,570.4048,700.4205,572.1473,705.8023,566.7655,707.5448,576.6,708.0769" style="stroke:#181818;stroke-width:1;"/><text fill="#000000" font-family="sans-serif" font-size="13" lengthAdjust="spacing" textLength="252.6685" x="513" y="666.8638">No hay datos en el rango seleccionado</text></g><!--link MostrarAviso to *end*--><g id="link_MostrarAviso_*end*"><path d="M568.35,753.5169 C501.18,776.7269 398.7014,812.1285 365.0214,823.7585 " fill="none" id="MostrarAviso-to-*end*" style="stroke:#181818;stroke-width:1;"/><polygon fill="#181818" points="359.35,825.7169,369.1627,826.5602,364.0762,824.0849,366.5515,818.9984,359.35,825.7169" style="stroke:#181818;stroke-width:1;"/></g><!--SRC=[TP9DJYCn48NtFaNja92O0sGn4k9784sO4H5io2mgxY8fv7Qroku8k0rdcOjDsIHA7CAkLJzVlthFcNCWkC0aq14y99d08obCSS1IkC0WMZyaPkN5w5aY9UTEu3gCBmA3SlGyO71Fft_XxEmdtCQbKf9Bp99WOiWHbGMubX4UxdyPBu3I88cpMCyrAuKneq2-_EeUUxmclyA2cd7Ar2CCf3rdWhITGfr7jKbuW-Swx8u1AbW2UywezS2TkhIfmvgCPVBwZG6-6E3QjGBwlSWKIRTNRgN98hFLeIlrUIo0nZX39Yi6XFC_jww15EfKKbRK6y9i0lQu_KYb0wPizTcSHoCVqDt1Va5QB2MjAKPwgHbVgOgv_TNqpNBj5siiA8xhVn-1EtHDyqZCCzfvw4MLbgm5uRuzydpDzkWcS2UmmhTFnu1YEL4nBcKltavSixHtrvraYvPU1_itPbvRzb7iRIWlLndakT7f04xXAi2uIRsZ1K5L1-YzJG4s3_E7ezX1uRa3QcjqvPe39cx4mEyrf-O5mTUmTl3_]--></g></svg>