<svg xmlns="http://www.w3.org/2000/svg" xmlns:xlink="http://www.w3.org/1999/xlink" contentStyleType="text/css" height="480px" preserveAspectRatio="none" style="width:540px;height:480px;background:#FFFFFF;" version="1.1" viewBox="0 0 540 480" width="540px" zoomAndPan="magnify"><defs/><g><ellipse cx="230.5" cy="16" fill="#222222" rx="10" ry="10" style="stroke:#222222;stroke-width:1;"/><g id="Creado"><rect fill="#F1F1F1" height="50" rx="12.5" ry="12.5" style="stroke:#181818;stroke-width:0.5;" width="70.1758" x="195.5" y="87"/><line style="stroke:#181818;stroke-width:0.5;" x1="195.5" x2="265.6758" y1="113.2969" y2="113.2969"/><text fill="#000000" font-family="sans-serif" font-size="14" lengthAdjust="spacing" textLength="50.1758" x="205.5" y="104.9951">Creado</text></g><g id="Modificado"><rect fill="#F1F1F1" height="50" rx="12.5" ry="12.5" style="stroke:#181818;stroke-width:0.5;" width="95.9678" x="182.5" y="214"/><line style="stroke:#181818;stroke-width:0.5;" x1="182.5" x2="278.4678" y1="240.2969" y2="240.2969"/><text fill="#000000" font-family="sans-serif" font-size="14" lengthAdjust="spacing" textLength="75.9678" x="192.5" y="231.9951">Modificado</text></g><g id="Eliminado"><rect fill="#F1F1F1" height="50" rx="12.5" ry="12.5" style="stroke:#181818;stroke-width:0.5;" width="89.0566" x="7" y="341"/><line style="stroke:#181818;stroke-width:0.5;" x1="7" x2="96.0566" y1="367.2969" y2="367.2969"/><text fill="#000000" font-family="sans-serif" font-size="14" lengthAdjust="spacing" textLength="69.0566" x="17" y="358.9951">Eliminado</text></g><g id="SinCambios"><rect fill="#F1F1F1" height="50" rx="12.5" ry="12.5" style="stroke:#181818;stroke-width:0.5;" width="102.2773" x="283.5" y="341"/><line style="stroke:#181818;stroke-width:0.5;" x1="283.5" x2="385.7773" y1="367.2969" y2="367.2969"/><text fill="#000000" font-family="sans-serif" font-size="14" lengthAdjust="spacing" textLength="82.2773" x="293.5" y="358.9951">SinCambios</text></g><ellipse cx="51.5" cy="463" fill="none" rx="11" ry="11" style="stroke:#222222;stroke-width:1;"/><ellipse cx="51.5" cy="463" fill="#222222" rx="6" ry="6" style="stroke:#222222;stroke-width:1;"/><!--link *start* to Creado--><g id="link_*start*_Creado"><path d="M230.5,26.01 C230.5,39.89 230.5,60.97 230.5,80.84 " fill="none" id="*start*-to-Creado" style="stroke:#181818;stroke-width:1;"/><polygon fill="#181818" points="230.5,86.84,234.5,77.84,230.5,81.84,226.5,77.84,230.5,86.84" style="stroke:#181818;stroke-width:1;"/></g><!--link Creado to Modificado--><g id="link_Creado_Modificado"><path d="M230.5,137.1 C230.5,159.24 230.5,185.86 230.5,207.97 " fill="none" id="Creado-to-Modificado" style="stroke:#181818;stroke-width:1;"/><polygon fill="#181818" points="230.5,213.97,234.5,204.97,230.5,208.97,226.5,204.97,230.5,213.97" style="stroke:#181818;stroke-width:1;"/><text fill="#000000" font-family="sans-serif" font-size="13" lengthAdjust="spacing" textLength="112.7979" x="231.5" y="180.0669">commit realizado</text></g><!--link Modificado to Eliminado--><g id="link_Modificado_Eliminado"><path d="M182.25,245.55 C148.24,251.88 103.88,265.36 75.5,294 C63.14,306.48 58.2661,319.6466 55.3561,334.8766 " fill="none" id="Modificado-to-Eliminado" style="stroke:#181818;stroke-width:1;"/><polygon fill="#181818" points="54.23,340.77,59.848,332.6806,55.1684,335.8588,51.9902,331.1792,54.23,340.77" style="stroke:#181818;stroke-width:1;"/><text fill="#000000" font-family="sans-serif" font-size="13" lengthAdjust="spacing" textLength="137.5474" x="76.5" y="307.0669">eliminado en commit</text></g><!--link Modificado to SinCambios--><g id="link_Modificado_SinCambios"><path d="M223.06,264.07 C220.03,278.69 218.96,297.13 227.5,311 C239.88,331.11 256.709,341.8586 277.849,349.9786 " fill="none" id="Modificado-to-SinCambios" style="stroke:#181818;stroke-width:1;"/><polygon fill="#181818" points="283.45,352.13,276.4827,345.1689,278.7825,350.3372,273.6142,352.6369,283.45,352.13" style="stroke:#181818;stroke-width:1;"/><text fill="#000000" font-family="sans-serif" font-size="13" lengthAdjust="spacing" textLength="167.064" x="228.5" y="307.0669">no hay cambios recientes</text></g><!--link SinCambios to Modificado--><g id="link_SinCambios_Modificado"><path d="M379.33,340.95 C397.96,327.75 412.72,310.71 400.5,294 C372.8,256.14 324.3275,244.6991 284.4875,241.2391 " fill="none" id="SinCambios-to-Modificado" style="stroke:#181818;stroke-width:1;"/><polygon fill="#181818" points="278.51,240.72,287.1302,245.4837,283.4912,241.1526,287.8223,237.5137,278.51,240.72" style="stroke:#181818;stroke-width:1;"/><text fill="#000000" font-family="sans-serif" font-size="13" lengthAdjust="spacing" textLength="127.0039" x="405.5" y="307.0669">nueva modificaci&#243;n</text></g><!--link Eliminado to *end*--><g id="link_Eliminado_*end*"><path d="M51.5,391.46 C51.5,411.04 51.5,431.49 51.5,445.8 " fill="none" id="Eliminado-to-*end*" style="stroke:#181818;stroke-width:1;"/><polygon fill="#181818" points="51.5,451.8,55.5,442.8,51.5,446.8,47.5,442.8,51.5,451.8" style="stroke:#181818;stroke-width:1;"/></g><!--SRC=[YzQALT3LjLDmBafDJCddWb1W4T_ybCoqp6GGrqeXEJytDxD40IYRara5KeWa2rBicfEPcva7KPiAPwVcGJMYAm_Ep7DEp4tAp2y6gi_BLyX8h5H8XWeKfIPdfkQLf1Pp8Qd2S51UQMfPea8kL2Wvy_3cF2w48q3AexLY0G00]--></g></svg>