<svg xmlns="http://www.w3.org/2000/svg" xmlns:xlink="http://www.w3.org/1999/xlink" contentStyleType="text/css" height="705px" preserveAspectRatio="none" style="width:1086px;height:705px;background:#FFFFFF;" version="1.1" viewBox="0 0 1086 705" width="1086px" zoomAndPan="magnify"><title>Caso de Uso: Ver Playback de C&#243;digo</title><defs/><g><text fill="#000000" font-family="sans-serif" font-size="14" font-weight="bold" lengthAdjust="spacing" textLength="293.166" x="389.7175" y="22.9951">Caso de Uso: Ver Playback de C&#243;digo</text><ellipse cx="563" cy="53.2969" fill="#222222" rx="10" ry="10" style="stroke:#222222;stroke-width:1;"/><g id="IngresoDatos"><rect fill="#F1F1F1" height="50" rx="12.5" ry="12.5" style="stroke:#181818;stroke-width:0.5;" width="112.8252" x="506.5" y="140.2969"/><line style="stroke:#181818;stroke-width:0.5;" x1="506.5" x2="619.3252" y1="166.5938" y2="166.5938"/><text fill="#000000" font-family="sans-serif" font-size="14" lengthAdjust="spacing" textLength="92.8252" x="516.5" y="158.292">IngresoDatos</text></g><g id="SeleccionArchivo"><rect fill="#F1F1F1" height="50" rx="12.5" ry="12.5" style="stroke:#181818;stroke-width:0.5;" width="139.3691" x="303.5" y="282.2969"/><line style="stroke:#181818;stroke-width:0.5;" x1="303.5" x2="442.8691" y1="308.5938" y2="308.5938"/><text fill="#000000" font-family="sans-serif" font-size="14" lengthAdjust="spacing" textLength="119.3691" x="313.5" y="300.292">SeleccionArchivo</text></g><g id="ObtenerCommits"><rect fill="#F1F1F1" height="50" rx="12.5" ry="12.5" style="stroke:#181818;stroke-width:0.5;" width="139.54" x="303" y="424.2969"/><line style="stroke:#181818;stroke-width:0.5;" x1="303" x2="442.54" y1="450.5938" y2="450.5938"/><text fill="#000000" font-family="sans-serif" font-size="14" lengthAdjust="spacing" textLength="119.54" x="313" y="442.292">ObtenerCommits</text></g><g id="MostrarPlayback"><rect fill="#F1F1F1" height="50" rx="12.5" ry="12.5" style="stroke:#181818;stroke-width:0.5;" width="135.9854" x="7" y="566.2969"/><line style="stroke:#181818;stroke-width:0.5;" x1="7" x2="142.9854" y1="592.5938" y2="592.5938"/><text fill="#000000" font-family="sans-serif" font-size="14" lengthAdjust="spacing" textLength="115.9854" x="17" y="584.292">MostrarPlayback</text></g><ellipse cx="373" cy="688.2969" fill="none" rx="11" ry="11" style="stroke:#222222;stroke-width:1;"/><ellipse cx="373" cy="688.2969" fill="#222222" rx="6" ry="6" style="stroke:#222222;stroke-width:1;"/><g id="MostrarError"><rect fill="#F1F1F1" height="50" rx="12.5" ry="12.5" style="stroke:#181818;stroke-width:0.5;" width="108.1973" x="570" y="282.2969"/><line style="stroke:#181818;stroke-width:0.5;" x1="570" x2="678.1973" y1="308.5938" y2="308.5938"/><text fill="#000000" font-family="sans-serif" font-size="14" lengthAdjust="spacing" textLength="88.1973" x="580" y="300.292">MostrarError</text></g><g id="MostrarAviso"><rect fill="#F1F1F1" height="50" rx="12.5" ry="12.5" style="stroke:#181818;stroke-width:0.5;" width="111.1299" x="617.5" y="566.2969"/><line style="stroke:#181818;stroke-width:0.5;" x1="617.5" x2="728.6299" y1="592.5938" y2="592.5938"/><text fill="#000000" font-family="sans-serif" font-size="14" lengthAdjust="spacing" textLength="91.1299" x="627.5" y="584.292">MostrarAviso</text></g><g id="elem_GMN2"><path d="M654.5,152.7969 L654.5,161.2969 L619.7,165.2969 L654.5,169.2969 L654.5,177.9297 A0,0 0 0 0 654.5,177.9297 L1079.6011,177.9297 A0,0 0 0 0 1079.6011,177.9297 L1079.6011,162.7969 L1069.6011,152.7969 L654.5,152.7969 A0,0 0 0 0 654.5,152.7969 " fill="#FEFFDD" style="stroke:#181818;stroke-width:0.5;"/><path d="M1069.6011,152.7969 L1069.6011,162.7969 L1079.6011,162.7969 L1069.6011,152.7969 " fill="#FEFFDD" style="stroke:#181818;stroke-width:0.5;"/><ellipse cx="666" cy="165.4297" fill="#000000" rx="2.5" ry="2.5" style="stroke:#000000;stroke-width:0;"/><text fill="#000000" font-family="sans-serif" font-size="13" lengthAdjust="spacing" textLength="392.1011" x="672.5" y="169.8638">El usuario debe proporcionar una URL v&#225;lida del repositorio.</text></g><g id="elem_GMN5"><path d="M178,578.7969 L178,587.2969 L143.21,591.2969 L178,595.2969 L178,603.9297 A0,0 0 0 0 178,603.9297 L581.9443,603.9297 A0,0 0 0 0 581.9443,603.9297 L581.9443,588.7969 L571.9443,578.7969 L178,578.7969 A0,0 0 0 0 178,578.7969 " fill="#FEFFDD" style="stroke:#181818;stroke-width:0.5;"/><path d="M571.9443,578.7969 L571.9443,588.7969 L581.9443,588.7969 L571.9443,578.7969 " fill="#FEFFDD" style="stroke:#181818;stroke-width:0.5;"/><ellipse cx="189.5" cy="591.4297" fill="#000000" rx="2.5" ry="2.5" style="stroke:#000000;stroke-width:0;"/><text fill="#000000" font-family="sans-serif" font-size="13" lengthAdjust="spacing" textLength="370.9443" x="196" y="595.8638">Se muestra la evoluci&#243;n del c&#243;digo a lo largo del tiempo.</text></g><!--link *start* to IngresoDatos--><g id="link_*start*_IngresoDatos"><path d="M563,63.2969 C563,79.9269 563,109.9569 563,134.1669 " fill="none" id="*start*-to-IngresoDatos" style="stroke:#181818;stroke-width:1;"/><polygon fill="#181818" points="563,140.1669,567,131.1669,563,135.1669,559,131.1669,563,140.1669" style="stroke:#181818;stroke-width:1;"/><text fill="#000000" font-family="sans-serif" font-size="13" lengthAdjust="spacing" textLength="229.6646" x="564" y="106.3638">Usuario ingresa URL del repositorio</text></g><!--link IngresoDatos to SeleccionArchivo--><g id="link_IngresoDatos_SeleccionArchivo"><path d="M506.13,170.9669 C469.89,176.8869 424.54,190.2469 396,220.2969 C380.25,236.8769 375.5206,257.0578 373.9206,276.1678 " fill="none" id="IngresoDatos-to-SeleccionArchivo" style="stroke:#181818;stroke-width:1;"/><polygon fill="#181818" points="373.42,282.1469,378.157,273.512,373.8372,277.1643,370.1849,272.8445,373.42,282.1469" style="stroke:#181818;stroke-width:1;"/><text fill="#000000" font-family="sans-serif" font-size="13" lengthAdjust="spacing" textLength="121.9829" x="410.4602" y="233.3638">Usuario selecciona</text><text fill="#000000" font-family="sans-serif" font-size="13" lengthAdjust="spacing" textLength="148.9033" x="397" y="248.4966">un archivo del historial</text></g><!--link SeleccionArchivo to ObtenerCommits--><g id="link_SeleccionArchivo_ObtenerCommits"><path d="M373,332.3669 C373,358.0069 373,392.3769 373,418.0769 " fill="none" id="SeleccionArchivo-to-ObtenerCommits" style="stroke:#181818;stroke-width:1;"/><polygon fill="#181818" points="373,424.0769,377,415.0769,373,419.0769,369,415.0769,373,424.0769" style="stroke:#181818;stroke-width:1;"/><text fill="#000000" font-family="sans-serif" font-size="13" lengthAdjust="spacing" textLength="105.644" x="395.3662" y="375.3638">Sistema obtiene</text><text fill="#000000" font-family="sans-serif" font-size="13" lengthAdjust="spacing" textLength="148.3765" x="374" y="390.4966">el historial de commits</text></g><!--link ObtenerCommits to MostrarPlayback--><g id="link_ObtenerCommits_MostrarPlayback"><path d="M321.77,474.3669 C267.19,500.0069 186.7007,537.8258 131.9907,563.5258 " fill="none" id="ObtenerCommits-to-MostrarPlayback" style="stroke:#181818;stroke-width:1;"/><polygon fill="#181818" points="126.56,566.0769,136.4067,565.8707,131.0856,563.951,133.0053,558.6299,126.56,566.0769" style="stroke:#181818;stroke-width:1;"/><text fill="#000000" font-family="sans-serif" font-size="13" lengthAdjust="spacing" textLength="110.5762" x="282.4878" y="517.3638">Sistema muestra</text><text fill="#000000" font-family="sans-serif" font-size="13" lengthAdjust="spacing" textLength="171.5518" x="252" y="532.4966">el reproductor de cambios</text></g><!--link MostrarPlayback to *end*--><g id="link_MostrarPlayback_*end*"><path d="M143.37,614.0869 C216.91,637.5369 322.2437,671.1138 356.7037,682.1038 " fill="none" id="MostrarPlayback-to-*end*" style="stroke:#181818;stroke-width:1;"/><polygon fill="#181818" points="362.42,683.9269,355.0609,677.3814,357.6564,682.4077,352.6301,685.0032,362.42,683.9269" style="stroke:#181818;stroke-width:1;"/></g><!--link IngresoDatos to MostrarError--><g id="link_IngresoDatos_MostrarError"><path d="M556.5,190.4469 C552.99,208.3569 551,232.9269 560,252.2969 C565.39,263.8969 570.0226,270.0755 579.8326,278.2155 " fill="none" id="IngresoDatos-to-MostrarError" style="stroke:#181818;stroke-width:1;"/><polygon fill="#181818" points="584.45,282.0469,580.0781,273.2215,580.6022,278.8541,574.9696,279.3781,584.45,282.0469" style="stroke:#181818;stroke-width:1;"/><text fill="#000000" font-family="sans-serif" font-size="13" lengthAdjust="spacing" textLength="80.8755" x="561" y="240.8638">URL inv&#225;lida</text></g><!--link MostrarError to IngresoDatos--><g id="link_MostrarError_IngresoDatos"><path d="M639.22,282.1469 C648.41,264.2369 656.51,239.6669 646,220.2969 C639.36,208.0569 633.5837,201.5128 621.9937,193.6928 " fill="none" id="MostrarError-to-IngresoDatos" style="stroke:#181818;stroke-width:1;"/><polygon fill="#181818" points="617.02,190.3369,622.2434,198.6865,621.1648,193.1334,626.7179,192.0549,617.02,190.3369" style="stroke:#181818;stroke-width:1;"/><text fill="#000000" font-family="sans-serif" font-size="13" lengthAdjust="spacing" textLength="151.2075" x="652" y="240.8638">Se solicita corregir URL</text></g><!--link ObtenerCommits to MostrarAviso--><g id="link_ObtenerCommits_MostrarAviso"><path d="M424.57,474.3669 C479.6,500.0469 560.8531,537.9591 615.9131,563.6591 " fill="none" id="ObtenerCommits-to-MostrarAviso" style="stroke:#181818;stroke-width:1;"/><polygon fill="#181818" points="621.35,566.1969,614.8865,558.7657,616.8193,564.0821,611.5028,566.0149,621.35,566.1969" style="stroke:#181818;stroke-width:1;"/><text fill="#000000" font-family="sans-serif" font-size="13" lengthAdjust="spacing" textLength="172.7388" x="551" y="524.8638">No hay historial disponible</text></g><!--link MostrarAviso to *end*--><g id="link_MostrarAviso_*end*"><path d="M617.26,610.4369 C611.1,612.4269 604.92,614.4069 599,616.2969 C515.94,642.8169 421.1898,672.3267 389.0998,682.2967 " fill="none" id="MostrarAviso-to-*end*" style="stroke:#181818;stroke-width:1;"/><polygon fill="#181818" points="383.37,684.0769,393.1515,685.2265,388.1449,682.5934,390.7779,677.5867,383.37,684.0769" style="stroke:#181818;stroke-width:1;"/></g><!--SRC=[VPDHJjn038RVvnH-guG41q1g9RHGgLAXg2lwKdXm9cxMT3AEF9Ee7ATdu0XxCJoJbEw6gddqRtyU_tOovq2mmIJG4jmbEOTlf70RyAb1_xC4D_ldbZjnxXsyjmy-Xl5Hu5OvUXumrA3xVl80fwSVu5Fib99SOfO4vmOSKLc0QnZXxkjdGmPG6YHn5jFSKKbXR2cGzopnGlsE9pdWf3yItiSn0Yu91RdZL7WOt9lw0ltIP8ga6-bxpkLfMykd7a6QpARSnqD6cTlFgMvLMM3NahAYlhhqbzQFLAHAio5Lsj4RilAmRrYIMnSNeDdtwkyrHdgiwxXI5RDcTlYDJGkd9XMBp5gEq_vtu1RTaVYFnMm9aWJsdD46LQMEjI3SVyQzc3YLPTm8xF3fq2nEWqHk0hcZrFLaDv8n0VqQh35cdd0PBKecKEvs6UJ7qKiTm0bS1HYN_RVK49YhWsYz0eKnpbUr3Bw-hZD7iONImAtQhDPGEvahom8X8D0aOVIyVuwLwkV_04mJaxMRxywkfnyE-hm0]--></g></svg>