<svg xmlns="http://www.w3.org/2000/svg" xmlns:xlink="http://www.w3.org/1999/xlink" contentStyleType="text/css" height="847px" preserveAspectRatio="none" style="width:1101px;height:847px;background:#FFFFFF;" version="1.1" viewBox="0 0 1101 847" width="1101px" zoomAndPan="magnify"><title>Caso de Uso: Ver Tabla de Estad&#237;sticas</title><defs/><g><text fill="#000000" font-family="sans-serif" font-size="14" font-weight="bold" lengthAdjust="spacing" textLength="306.127" x="390.7371" y="22.9951">Caso de Uso: Ver Tabla de Estad&#237;sticas</text><ellipse cx="578" cy="53.2969" fill="#222222" rx="10" ry="10" style="stroke:#222222;stroke-width:1;"/><g id="IngresoDatos"><rect fill="#F1F1F1" height="50" rx="12.5" ry="12.5" style="stroke:#181818;stroke-width:0.5;" width="112.8252" x="521.5" y="140.2969"/><line style="stroke:#181818;stroke-width:0.5;" x1="521.5" x2="634.3252" y1="166.5938" y2="166.5938"/><text fill="#000000" font-family="sans-serif" font-size="14" lengthAdjust="spacing" textLength="92.8252" x="531.5" y="158.292">IngresoDatos</text></g><g id="SeleccionRamaFechas"><rect fill="#F1F1F1" height="50" rx="12.5" ry="12.5" style="stroke:#181818;stroke-width:0.5;" width="176.3584" x="263" y="282.2969"/><line style="stroke:#181818;stroke-width:0.5;" x1="263" x2="439.3584" y1="308.5938" y2="308.5938"/><text fill="#000000" font-family="sans-serif" font-size="14" lengthAdjust="spacing" textLength="156.3584" x="273" y="300.292">SeleccionRamaFechas</text></g><g id="SolicitarTabla"><rect fill="#F1F1F1" height="50" rx="12.5" ry="12.5" style="stroke:#181818;stroke-width:0.5;" width="115.1289" x="293.5" y="424.2969"/><line style="stroke:#181818;stroke-width:0.5;" x1="293.5" x2="408.6289" y1="450.5938" y2="450.5938"/><text fill="#000000" font-family="sans-serif" font-size="14" lengthAdjust="spacing" textLength="95.1289" x="303.5" y="442.292">SolicitarTabla</text></g><g id="ObtenerDatos"><rect fill="#F1F1F1" height="50" rx="12.5" ry="12.5" style="stroke:#181818;stroke-width:0.5;" width="117.959" x="292" y="566.2969"/><line style="stroke:#181818;stroke-width:0.5;" x1="292" x2="409.959" y1="592.5938" y2="592.5938"/><text fill="#000000" font-family="sans-serif" font-size="14" lengthAdjust="spacing" textLength="97.959" x="302" y="584.292">ObtenerDatos</text></g><g id="MostrarTabla"><rect fill="#F1F1F1" height="50" rx="12.5" ry="12.5" style="stroke:#181818;stroke-width:0.5;" width="112.0049" x="7" y="708.2969"/><line style="stroke:#181818;stroke-width:0.5;" x1="7" x2="119.0049" y1="734.5938" y2="734.5938"/><text fill="#000000" font-family="sans-serif" font-size="14" lengthAdjust="spacing" textLength="92.0049" x="17" y="726.292">MostrarTabla</text></g><ellipse cx="351" cy="830.2969" fill="none" rx="11" ry="11" style="stroke:#222222;stroke-width:1;"/><ellipse cx="351" cy="830.2969" fill="#222222" rx="6" ry="6" style="stroke:#222222;stroke-width:1;"/><g id="MostrarError"><rect fill="#F1F1F1" height="50" rx="12.5" ry="12.5" style="stroke:#181818;stroke-width:0.5;" width="108.1973" x="585" y="282.2969"/><line style="stroke:#181818;stroke-width:0.5;" x1="585" x2="693.1973" y1="308.5938" y2="308.5938"/><text fill="#000000" font-family="sans-serif" font-size="14" lengthAdjust="spacing" textLength="88.1973" x="595" y="300.292">MostrarError</text></g><g id="MostrarAviso"><rect fill="#F1F1F1" height="50" rx="12.5" ry="12.5" style="stroke:#181818;stroke-width:0.5;" width="111.1299" x="584.5" y="708.2969"/><line style="stroke:#181818;stroke-width:0.5;" x1="584.5" x2="695.6299" y1="734.5938" y2="734.5938"/><text fill="#000000" font-family="sans-serif" font-size="14" lengthAdjust="spacing" textLength="91.1299" x="594.5" y="726.292">MostrarAviso</text></g><g id="elem_GMN2"><path d="M669.5,152.7969 L669.5,161.2969 L634.7,165.2969 L669.5,169.2969 L669.5,177.9297 A0,0 0 0 0 669.5,177.9297 L1094.6011,177.9297 A0,0 0 0 0 1094.6011,177.9297 L1094.6011,162.7969 L1084.6011,152.7969 L669.5,152.7969 A0,0 0 0 0 669.5,152.7969 " fill="#FEFFDD" style="stroke:#181818;stroke-width:0.5;"/><path d="M1084.6011,152.7969 L1084.6011,162.7969 L1094.6011,162.7969 L1084.6011,152.7969 " fill="#FEFFDD" style="stroke:#181818;stroke-width:0.5;"/><ellipse cx="681" cy="165.4297" fill="#000000" rx="2.5" ry="2.5" style="stroke:#000000;stroke-width:0;"/><text fill="#000000" font-family="sans-serif" font-size="13" lengthAdjust="spacing" textLength="392.1011" x="687.5" y="169.8638">El usuario debe proporcionar una URL v&#225;lida del repositorio.</text></g><g id="elem_GMN5"><path d="M154.5,720.7969 L154.5,729.2969 L119.16,733.2969 L154.5,737.2969 L154.5,745.9297 A0,0 0 0 0 154.5,745.9297 L549.8433,745.9297 A0,0 0 0 0 549.8433,745.9297 L549.8433,730.7969 L539.8433,720.7969 L154.5,720.7969 A0,0 0 0 0 154.5,720.7969 " fill="#FEFFDD" style="stroke:#181818;stroke-width:0.5;"/><path d="M539.8433,720.7969 L539.8433,730.7969 L549.8433,730.7969 L539.8433,720.7969 " fill="#FEFFDD" style="stroke:#181818;stroke-width:0.5;"/><ellipse cx="166" cy="733.4297" fill="#000000" rx="2.5" ry="2.5" style="stroke:#000000;stroke-width:0;"/><text fill="#000000" font-family="sans-serif" font-size="13" lengthAdjust="spacing" textLength="362.3433" x="172.5" y="737.8638">Se visualiza la tabla con estad&#237;sticas de contribuciones.</text></g><!--link *start* to IngresoDatos--><g id="link_*start*_IngresoDatos"><path d="M578,63.2969 C578,79.9269 578,109.9569 578,134.1669 " fill="none" id="*start*-to-IngresoDatos" style="stroke:#181818;stroke-width:1;"/><polygon fill="#181818" points="578,140.1669,582,131.1669,578,135.1669,574,131.1669,578,140.1669" style="stroke:#181818;stroke-width:1;"/><text fill="#000000" font-family="sans-serif" font-size="13" lengthAdjust="spacing" textLength="229.6646" x="579" y="106.3638">Usuario ingresa URL del repositorio</text></g><!--link IngresoDatos to SeleccionRamaFechas--><g id="link_IngresoDatos_SeleccionRamaFechas"><path d="M521.13,166.5069 C475.42,169.7769 412.65,181.7469 374,220.2969 C357.81,236.4469 353.1069,256.6843 351.6369,275.9343 " fill="none" id="IngresoDatos-to-SeleccionRamaFechas" style="stroke:#181818;stroke-width:1;"/><polygon fill="#181818" points="351.18,281.9169,355.8537,273.2476,351.5607,276.9314,347.8769,272.6384,351.18,281.9169" style="stroke:#181818;stroke-width:1;"/><text fill="#000000" font-family="sans-serif" font-size="13" lengthAdjust="spacing" textLength="185.3833" x="375" y="233.3638">Sistema permite seleccionar</text><text fill="#000000" font-family="sans-serif" font-size="13" lengthAdjust="spacing" textLength="92.5996" x="421.3918" y="248.4966">rama y fechas</text></g><!--link SeleccionRamaFechas to SolicitarTabla--><g id="link_SeleccionRamaFechas_SolicitarTabla"><path d="M351,332.3669 C351,358.0069 351,392.3769 351,418.0769 " fill="none" id="SeleccionRamaFechas-to-SolicitarTabla" style="stroke:#181818;stroke-width:1;"/><polygon fill="#181818" points="351,424.0769,355,415.0769,351,419.0769,347,415.0769,351,424.0769" style="stroke:#181818;stroke-width:1;"/><text fill="#000000" font-family="sans-serif" font-size="13" lengthAdjust="spacing" textLength="124.4775" x="364.854" y="375.3638">Usuario solicita ver</text><text fill="#000000" font-family="sans-serif" font-size="13" lengthAdjust="spacing" textLength="150.1855" x="352" y="390.4966">la tabla de estad&#237;sticas</text></g><!--link SolicitarTabla to ObtenerDatos--><g id="link_SolicitarTabla_ObtenerDatos"><path d="M351,474.3669 C351,500.0069 351,534.3769 351,560.0769 " fill="none" id="SolicitarTabla-to-ObtenerDatos" style="stroke:#181818;stroke-width:1;"/><polygon fill="#181818" points="351,566.0769,355,557.0769,351,561.0769,347,557.0769,351,566.0769" style="stroke:#181818;stroke-width:1;"/><text fill="#000000" font-family="sans-serif" font-size="13" lengthAdjust="spacing" textLength="145.8184" x="378.9934" y="517.3638">Sistema obtiene datos</text><text fill="#000000" font-family="sans-serif" font-size="13" lengthAdjust="spacing" textLength="199.8052" x="352" y="532.4966">de contribuciones desde la API</text></g><!--link ObtenerDatos to MostrarTabla--><g id="link_ObtenerDatos_MostrarTabla"><path d="M301.49,616.3669 C248.74,642.0069 171.0962,679.7538 118.2262,705.4538 " fill="none" id="ObtenerDatos-to-MostrarTabla" style="stroke:#181818;stroke-width:1;"/><polygon fill="#181818" points="112.83,708.0769,122.6731,707.7397,117.3269,705.891,119.1756,700.5447,112.83,708.0769" style="stroke:#181818;stroke-width:1;"/><text fill="#000000" font-family="sans-serif" font-size="13" lengthAdjust="spacing" textLength="163.3125" x="234" y="659.3638">Sistema muestra la tabla</text><text fill="#000000" font-family="sans-serif" font-size="13" lengthAdjust="spacing" textLength="104.5396" x="263.3865" y="674.4966">con estad&#237;sticas</text></g><!--link MostrarTabla to *end*--><g id="link_MostrarTabla_*end*"><path d="M119.21,752.8369 C189.6,776.0569 299.5519,812.3275 334.7819,823.9475 " fill="none" id="MostrarTabla-to-*end*" style="stroke:#181818;stroke-width:1;"/><polygon fill="#181818" points="340.48,825.8269,333.1859,819.2091,335.7316,824.2607,330.68,826.8065,340.48,825.8269" style="stroke:#181818;stroke-width:1;"/></g><!--link IngresoDatos to MostrarError--><g id="link_IngresoDatos_MostrarError"><path d="M571.5,190.4469 C567.99,208.3569 566,232.9269 575,252.2969 C580.39,263.8969 585.0226,270.0755 594.8326,278.2155 " fill="none" id="IngresoDatos-to-MostrarError" style="stroke:#181818;stroke-width:1;"/><polygon fill="#181818" points="599.45,282.0469,595.0781,273.2215,595.6022,278.8541,589.9696,279.3781,599.45,282.0469" style="stroke:#181818;stroke-width:1;"/><text fill="#000000" font-family="sans-serif" font-size="13" lengthAdjust="spacing" textLength="80.8755" x="576" y="240.8638">URL inv&#225;lida</text></g><!--link MostrarError to IngresoDatos--><g id="link_MostrarError_IngresoDatos"><path d="M654.22,282.1469 C663.41,264.2369 671.51,239.6669 661,220.2969 C654.36,208.0569 648.5837,201.5128 636.9937,193.6928 " fill="none" id="MostrarError-to-IngresoDatos" style="stroke:#181818;stroke-width:1;"/><polygon fill="#181818" points="632.02,190.3369,637.2434,198.6865,636.1648,193.1334,641.7179,192.0549,632.02,190.3369" style="stroke:#181818;stroke-width:1;"/><text fill="#000000" font-family="sans-serif" font-size="13" lengthAdjust="spacing" textLength="151.2075" x="667" y="240.8638">Se solicita corregir URL</text></g><!--link ObtenerDatos to MostrarAviso--><g id="link_ObtenerDatos_MostrarAviso"><path d="M400.68,616.3669 C453.62,642.0069 531.5401,679.7614 584.6001,705.4614 " fill="none" id="ObtenerDatos-to-MostrarAviso" style="stroke:#181818;stroke-width:1;"/><polygon fill="#181818" points="590,708.0769,583.6438,700.5537,585.5001,705.8973,580.1564,707.7536,590,708.0769" style="stroke:#181818;stroke-width:1;"/><text fill="#000000" font-family="sans-serif" font-size="13" lengthAdjust="spacing" textLength="252.6685" x="523" y="666.8638">No hay datos en el rango seleccionado</text></g><!--link MostrarAviso to *end*--><g id="link_MostrarAviso_*end*"><path d="M584.28,752.6169 C513.42,775.9069 401.7602,812.614 366.8202,824.094 " fill="none" id="MostrarAviso-to-*end*" style="stroke:#181818;stroke-width:1;"/><polygon fill="#181818" points="361.12,825.9669,370.9189,826.9577,365.8702,824.4061,368.4217,819.3574,361.12,825.9669" style="stroke:#181818;stroke-width:1;"/></g><!--SRC=[TP9BJXn138RtTGhl8Y6H0umK94G62OcN6CY6oSBTRMQCQiejL_Kev3OSW5DmCLpzIDCzf9Qsw_Dl_qwSFC4PHe6Au27A0dwHmZqM7dDa6HDMxsynSOdHkM_mmnwS- -PPu5Ovb5oZRuFkyUWt71-Vm4NOA4NvYKaYB8pPeB80js64XxjB0tjGgYLo4ikvoPVCM96dicG9TxZ3Sogtc54hZebs23NfZXD17AfGrq6j4bxWgIrsNm5Qi7WkEQ5s4uxoOf-0FHdCKcbO0KrMC0DavasHA90E0mygfKXiSQXoV1sCL4f8oaMJTL4qThIWGKvlBzm4agbN4fEEEWVghg4SXq7XEXXrfd7oDRFCcd_UNM6WvzRjfQhOsZlt3Ype8MrHtfFPnc7__kgvGZT9Vc7wYiQ5bg9A6zQCSF-TytJFTeCBk1ROuaktD22Rp2u5mqO-cLs9ctoQJtWjoTocFxK9mCHxx4SCOZUZlDacaAU9OWTm14iFJNyC5HK4jKejsfqNDA6xt7u1yml-xYXKa1kuMPlFNhHjR3Mcka7FVqSNuS14EBYNiSS7]--></g></svg>