<svg xmlns="http://www.w3.org/2000/svg" xmlns:xlink="http://www.w3.org/1999/xlink" contentStyleType="text/css" height="847px" preserveAspectRatio="none" style="width:1114px;height:847px;background:#FFFFFF;" version="1.1" viewBox="0 0 1114 847" width="1114px" zoomAndPan="magnify"><title>Caso de Uso: Ver Diagrama de Burbujas</title><defs/><g><text fill="#000000" font-family="sans-serif" font-size="14" font-weight="bold" lengthAdjust="spacing" textLength="314.4873" x="393.0569" y="22.9951">Caso de Uso: Ver Diagrama de Burbujas</text><ellipse cx="591" cy="53.2969" fill="#222222" rx="10" ry="10" style="stroke:#222222;stroke-width:1;"/><g id="IngresoDatos"><rect fill="#F1F1F1" height="50" rx="12.5" ry="12.5" style="stroke:#181818;stroke-width:0.5;" width="112.8252" x="534.5" y="140.2969"/><line style="stroke:#181818;stroke-width:0.5;" x1="534.5" x2="647.3252" y1="166.5938" y2="166.5938"/><text fill="#000000" font-family="sans-serif" font-size="14" lengthAdjust="spacing" textLength="92.8252" x="544.5" y="158.292">IngresoDatos</text></g><g id="SeleccionRamaFechas"><rect fill="#F1F1F1" height="50" rx="12.5" ry="12.5" style="stroke:#181818;stroke-width:0.5;" width="176.3584" x="276" y="282.2969"/><line style="stroke:#181818;stroke-width:0.5;" x1="276" x2="452.3584" y1="308.5938" y2="308.5938"/><text fill="#000000" font-family="sans-serif" font-size="14" lengthAdjust="spacing" textLength="156.3584" x="286" y="300.292">SeleccionRamaFechas</text></g><g id="SolicitarGrafico"><rect fill="#F1F1F1" height="50" rx="12.5" ry="12.5" style="stroke:#181818;stroke-width:0.5;" width="126.9072" x="300.5" y="424.2969"/><line style="stroke:#181818;stroke-width:0.5;" x1="300.5" x2="427.4072" y1="450.5938" y2="450.5938"/><text fill="#000000" font-family="sans-serif" font-size="14" lengthAdjust="spacing" textLength="106.9072" x="310.5" y="442.292">SolicitarGrafico</text></g><g id="ObtenerDatos"><rect fill="#F1F1F1" height="50" rx="12.5" ry="12.5" style="stroke:#181818;stroke-width:0.5;" width="117.959" x="305" y="566.2969"/><line style="stroke:#181818;stroke-width:0.5;" x1="305" x2="422.959" y1="592.5938" y2="592.5938"/><text fill="#000000" font-family="sans-serif" font-size="14" lengthAdjust="spacing" textLength="97.959" x="315" y="584.292">ObtenerDatos</text></g><g id="MostrarGrafico"><rect fill="#F1F1F1" height="50" rx="12.5" ry="12.5" style="stroke:#181818;stroke-width:0.5;" width="123.7832" x="7" y="708.2969"/><line style="stroke:#181818;stroke-width:0.5;" x1="7" x2="130.7832" y1="734.5938" y2="734.5938"/><text fill="#000000" font-family="sans-serif" font-size="14" lengthAdjust="spacing" textLength="103.7832" x="17" y="726.292">MostrarGrafico</text></g><ellipse cx="364" cy="830.2969" fill="none" rx="11" ry="11" style="stroke:#222222;stroke-width:1;"/><ellipse cx="364" cy="830.2969" fill="#222222" rx="6" ry="6" style="stroke:#222222;stroke-width:1;"/><g id="MostrarError"><rect fill="#F1F1F1" height="50" rx="12.5" ry="12.5" style="stroke:#181818;stroke-width:0.5;" width="108.1973" x="598" y="282.2969"/><line style="stroke:#181818;stroke-width:0.5;" x1="598" x2="706.1973" y1="308.5938" y2="308.5938"/><text fill="#000000" font-family="sans-serif" font-size="14" lengthAdjust="spacing" textLength="88.1973" x="608" y="300.292">MostrarError</text></g><g id="MostrarAviso"><rect fill="#F1F1F1" height="50" rx="12.5" ry="12.5" style="stroke:#181818;stroke-width:0.5;" width="111.1299" x="605.5" y="708.2969"/><line style="stroke:#181818;stroke-width:0.5;" x1="605.5" x2="716.6299" y1="734.5938" y2="734.5938"/><text fill="#000000" font-family="sans-serif" font-size="14" lengthAdjust="spacing" textLength="91.1299" x="615.5" y="726.292">MostrarAviso</text></g><g id="elem_GMN2"><path d="M682.5,152.7969 L682.5,161.2969 L647.7,165.2969 L682.5,169.2969 L682.5,177.9297 A0,0 0 0 0 682.5,177.9297 L1107.6011,177.9297 A0,0 0 0 0 1107.6011,177.9297 L1107.6011,162.7969 L1097.6011,152.7969 L682.5,152.7969 A0,0 0 0 0 682.5,152.7969 " fill="#FEFFDD" style="stroke:#181818;stroke-width:0.5;"/><path d="M1097.6011,152.7969 L1097.6011,162.7969 L1107.6011,162.7969 L1097.6011,152.7969 " fill="#FEFFDD" style="stroke:#181818;stroke-width:0.5;"/><ellipse cx="694" cy="165.4297" fill="#000000" rx="2.5" ry="2.5" style="stroke:#000000;stroke-width:0;"/><text fill="#000000" font-family="sans-serif" font-size="13" lengthAdjust="spacing" textLength="392.1011" x="700.5" y="169.8638">El usuario debe proporcionar una URL v&#225;lida del repositorio.</text></g><g id="elem_GMN5"><path d="M166,720.7969 L166,729.2969 L131.19,733.2969 L166,737.2969 L166,745.9297 A0,0 0 0 0 166,745.9297 L570.1157,745.9297 A0,0 0 0 0 570.1157,745.9297 L570.1157,730.7969 L560.1157,720.7969 L166,720.7969 A0,0 0 0 0 166,720.7969 " fill="#FEFFDD" style="stroke:#181818;stroke-width:0.5;"/><path d="M560.1157,720.7969 L560.1157,730.7969 L570.1157,730.7969 L560.1157,720.7969 " fill="#FEFFDD" style="stroke:#181818;stroke-width:0.5;"/><ellipse cx="177.5" cy="733.4297" fill="#000000" rx="2.5" ry="2.5" style="stroke:#000000;stroke-width:0;"/><text fill="#000000" font-family="sans-serif" font-size="13" lengthAdjust="spacing" textLength="371.1157" x="184" y="737.8638">Se visualiza el diagrama de burbujas con contribuciones.</text></g><!--link *start* to IngresoDatos--><g id="link_*start*_IngresoDatos"><path d="M591,63.2969 C591,79.9269 591,109.9569 591,134.1669 " fill="none" id="*start*-to-IngresoDatos" style="stroke:#181818;stroke-width:1;"/><polygon fill="#181818" points="591,140.1669,595,131.1669,591,135.1669,587,131.1669,591,140.1669" style="stroke:#181818;stroke-width:1;"/><text fill="#000000" font-family="sans-serif" font-size="13" lengthAdjust="spacing" textLength="229.6646" x="592" y="106.3638">Usuario ingresa URL del repositorio</text></g><!--link IngresoDatos to SeleccionRamaFechas--><g id="link_IngresoDatos_SeleccionRamaFechas"><path d="M534.13,166.5069 C488.42,169.7769 425.65,181.7469 387,220.2969 C370.81,236.4469 366.1069,256.6843 364.6369,275.9343 " fill="none" id="IngresoDatos-to-SeleccionRamaFechas" style="stroke:#181818;stroke-width:1;"/><polygon fill="#181818" points="364.18,281.9169,368.8537,273.2476,364.5607,276.9314,360.8769,272.6384,364.18,281.9169" style="stroke:#181818;stroke-width:1;"/><text fill="#000000" font-family="sans-serif" font-size="13" lengthAdjust="spacing" textLength="185.3833" x="388" y="233.3638">Sistema permite seleccionar</text><text fill="#000000" font-family="sans-serif" font-size="13" lengthAdjust="spacing" textLength="92.5996" x="434.3918" y="248.4966">rama y fechas</text></g><!--link SeleccionRamaFechas to SolicitarGrafico--><g id="link_SeleccionRamaFechas_SolicitarGrafico"><path d="M364,332.3669 C364,358.0069 364,392.3769 364,418.0769 " fill="none" id="SeleccionRamaFechas-to-SolicitarGrafico" style="stroke:#181818;stroke-width:1;"/><polygon fill="#181818" points="364,424.0769,368,415.0769,364,419.0769,360,415.0769,364,424.0769" style="stroke:#181818;stroke-width:1;"/><text fill="#000000" font-family="sans-serif" font-size="13" lengthAdjust="spacing" textLength="124.4775" x="382.2402" y="375.3638">Usuario solicita ver</text><text fill="#000000" font-family="sans-serif" font-size="13" lengthAdjust="spacing" textLength="158.958" x="365" y="390.4966">el diagrama de burbujas</text></g><!--link SolicitarGrafico to ObtenerDatos--><g id="link_SolicitarGrafico_ObtenerDatos"><path d="M364,474.3669 C364,500.0069 364,534.3769 364,560.0769 " fill="none" id="SolicitarGrafico-to-ObtenerDatos" style="stroke:#181818;stroke-width:1;"/><polygon fill="#181818" points="364,566.0769,368,557.0769,364,561.0769,360,557.0769,364,566.0769" style="stroke:#181818;stroke-width:1;"/><text fill="#000000" font-family="sans-serif" font-size="13" lengthAdjust="spacing" textLength="145.8184" x="391.9934" y="517.3638">Sistema obtiene datos</text><text fill="#000000" font-family="sans-serif" font-size="13" lengthAdjust="spacing" textLength="199.8052" x="365" y="532.4966">de contribuciones desde la API</text></g><!--link ObtenerDatos to MostrarGrafico--><g id="link_ObtenerDatos_MostrarGrafico"><path d="M313.29,616.3669 C259.25,642.0069 179.6207,679.8047 125.4607,705.5047 " fill="none" id="ObtenerDatos-to-MostrarGrafico" style="stroke:#181818;stroke-width:1;"/><polygon fill="#181818" points="120.04,708.0769,129.8858,707.8323,124.5572,705.9334,126.4562,700.6048,120.04,708.0769" style="stroke:#181818;stroke-width:1;"/><text fill="#000000" font-family="sans-serif" font-size="13" lengthAdjust="spacing" textLength="126.3184" x="252.4487" y="659.3638">Sistema muestra el</text><text fill="#000000" font-family="sans-serif" font-size="13" lengthAdjust="spacing" textLength="143.2158" x="244" y="674.4966">diagrama de burbujas</text></g><!--link MostrarGrafico to *end*--><g id="link_MostrarGrafico_*end*"><path d="M131.2,754.3269 C203.89,777.7369 312.9789,812.8675 347.8789,824.1075 " fill="none" id="MostrarGrafico-to-*end*" style="stroke:#181818;stroke-width:1;"/><polygon fill="#181818" points="353.59,825.9469,346.2496,819.3805,348.8307,824.4141,343.7971,826.9953,353.59,825.9469" style="stroke:#181818;stroke-width:1;"/></g><!--link IngresoDatos to MostrarError--><g id="link_IngresoDatos_MostrarError"><path d="M584.5,190.4469 C580.99,208.3569 579,232.9269 588,252.2969 C593.39,263.8969 598.0226,270.0755 607.8326,278.2155 " fill="none" id="IngresoDatos-to-MostrarError" style="stroke:#181818;stroke-width:1;"/><polygon fill="#181818" points="612.45,282.0469,608.0781,273.2215,608.6022,278.8541,602.9696,279.3781,612.45,282.0469" style="stroke:#181818;stroke-width:1;"/><text fill="#000000" font-family="sans-serif" font-size="13" lengthAdjust="spacing" textLength="80.8755" x="589" y="240.8638">URL inv&#225;lida</text></g><!--link MostrarError to IngresoDatos--><g id="link_MostrarError_IngresoDatos"><path d="M667.22,282.1469 C676.41,264.2369 684.51,239.6669 674,220.2969 C667.36,208.0569 661.5837,201.5128 649.9937,193.6928 " fill="none" id="MostrarError-to-IngresoDatos" style="stroke:#181818;stroke-width:1;"/><polygon fill="#181818" points="645.02,190.3369,650.2434,198.6865,649.1648,193.1334,654.7179,192.0549,645.02,190.3369" style="stroke:#181818;stroke-width:1;"/><text fill="#000000" font-family="sans-serif" font-size="13" lengthAdjust="spacing" textLength="151.2075" x="680" y="240.8638">Se solicita corregir URL</text></g><!--link ObtenerDatos to MostrarAviso--><g id="link_ObtenerDatos_MostrarAviso"><path d="M415.06,616.3669 C469.46,642.0069 549.6626,679.8189 604.1926,705.5189 " fill="none" id="ObtenerDatos-to-MostrarAviso" style="stroke:#181818;stroke-width:1;"/><polygon fill="#181818" points="609.62,708.0769,603.1842,700.6217,605.0971,705.9453,599.7736,707.8582,609.62,708.0769" style="stroke:#181818;stroke-width:1;"/><text fill="#000000" font-family="sans-serif" font-size="13" lengthAdjust="spacing" textLength="252.6685" x="541" y="666.8638">No hay datos en el rango seleccionado</text></g><!--link MostrarAviso to *end*--><g id="link_MostrarAviso_*end*"><path d="M605.25,752.4169 C599.09,754.4069 592.91,756.3969 587,758.2969 C504.99,784.6469 411.6007,814.2376 379.9507,824.2476 " fill="none" id="MostrarAviso-to-*end*" style="stroke:#181818;stroke-width:1;"/><polygon fill="#181818" points="374.23,826.0569,384.0173,827.1567,378.9973,824.5491,381.6049,819.5291,374.23,826.0569" style="stroke:#181818;stroke-width:1;"/></g><!--SRC=[TP9DRjmm38NtEWLt1GAa1mZG0lb7WEO76IIRfWlQvdWuq8W69GsItgPdoSLAUUncx4orfAIFZtmlSV84vnW56eAdA2VmJ0eNZAtY1alnB6kLrnYT-mBVxC2Lpsk11-LGSuU-BxgVHx_W-FWxt8HMASe59ebmOiICoWBSbn6U7dyOquDI9v6Js9sRV2cC1NcgQvRmQ1Akg5vXGIqu9Z997Uc64q4SNw6-X5xi6opxn-uGe0UBvveJwhNYaclP4nY7AzYIuKnXixU2Qbp19q2XtbU90kauygXJgiHMXwRKNu9XQWb9kSf56KK3HojwXDE76pU15EgjnAJxIaVk9bEv0V86FIHozhF0p9r_zjrYe7LlzwMgsEPt1dvoOS3qZygYp3aEs_S_dXjqayi3lY_eOwErg5BBMX3kluEURZcMCUy4LlYssnfGW18M3Ati-Ts8ctoQJtWdoGodryu4OE8j3YC6iTWejwi4ifmeTW17SEaX3sbeg2BeL3hHNS8WXrruXmNCG_pLKMYWD72pDbCt-aQs7DETqVFlOkF1g9Mmp0BpqUCl]--></g></svg>