<svg xmlns="http://www.w3.org/2000/svg" xmlns:xlink="http://www.w3.org/1999/xlink" contentStyleType="text/css" height="607px" preserveAspectRatio="none" style="width:227px;height:607px;background:#FFFFFF;" version="1.1" viewBox="0 0 227 607" width="227px" zoomAndPan="magnify"><defs/><g><ellipse cx="55" cy="16" fill="#222222" rx="10" ry="10" style="stroke:#222222;stroke-width:1;"/><g id="NoClonado"><rect fill="#F1F1F1" height="50" rx="12.5" ry="12.5" style="stroke:#181818;stroke-width:0.5;" width="96.1729" x="7" y="87"/><line style="stroke:#181818;stroke-width:0.5;" x1="7" x2="103.1729" y1="113.2969" y2="113.2969"/><text fill="#000000" font-family="sans-serif" font-size="14" lengthAdjust="spacing" textLength="76.1729" x="17" y="104.9951">NoClonado</text></g><g id="Clonando"><rect fill="#F1F1F1" height="50" rx="12.5" ry="12.5" style="stroke:#181818;stroke-width:0.5;" width="86.0078" x="12" y="214"/><line style="stroke:#181818;stroke-width:0.5;" x1="12" x2="98.0078" y1="240.2969" y2="240.2969"/><text fill="#000000" font-family="sans-serif" font-size="14" lengthAdjust="spacing" textLength="66.0078" x="22" y="231.9951">Clonando</text></g><g id="Disponible"><rect fill="#F1F1F1" height="50" rx="12.5" ry="12.5" style="stroke:#181818;stroke-width:0.5;" width="93.5684" x="8" y="341"/><line style="stroke:#181818;stroke-width:0.5;" x1="8" x2="101.5684" y1="367.2969" y2="367.2969"/><text fill="#000000" font-family="sans-serif" font-size="14" lengthAdjust="spacing" textLength="73.5684" x="18" y="358.9951">Disponible</text></g><g id="Eliminado"><rect fill="#F1F1F1" height="50" rx="12.5" ry="12.5" style="stroke:#181818;stroke-width:0.5;" width="89.0566" x="10.5" y="468"/><line style="stroke:#181818;stroke-width:0.5;" x1="10.5" x2="99.5566" y1="494.2969" y2="494.2969"/><text fill="#000000" font-family="sans-serif" font-size="14" lengthAdjust="spacing" textLength="69.0566" x="20.5" y="485.9951">Eliminado</text></g><ellipse cx="55" cy="590" fill="none" rx="11" ry="11" style="stroke:#222222;stroke-width:1;"/><ellipse cx="55" cy="590" fill="#222222" rx="6" ry="6" style="stroke:#222222;stroke-width:1;"/><!--link *start* to NoClonado--><g id="link_*start*_NoClonado"><path d="M55,26.01 C55,39.89 55,60.97 55,80.84 " fill="none" id="*start*-to-NoClonado" style="stroke:#181818;stroke-width:1;"/><polygon fill="#181818" points="55,86.84,59,77.84,55,81.84,51,77.84,55,86.84" style="stroke:#181818;stroke-width:1;"/></g><!--link NoClonado to Clonando--><g id="link_NoClonado_Clonando"><path d="M55,137.1 C55,159.24 55,185.86 55,207.97 " fill="none" id="NoClonado-to-Clonando" style="stroke:#181818;stroke-width:1;"/><polygon fill="#181818" points="55,213.97,59,204.97,55,208.97,51,204.97,55,213.97" style="stroke:#181818;stroke-width:1;"/><text fill="#000000" font-family="sans-serif" font-size="13" lengthAdjust="spacing" textLength="141.6162" x="56" y="180.0669">Se ejecuta `git clone`</text></g><!--link Clonando to Disponible--><g id="link_Clonando_Disponible"><path d="M55,264.1 C55,286.24 55,312.86 55,334.97 " fill="none" id="Clonando-to-Disponible" style="stroke:#181818;stroke-width:1;"/><polygon fill="#181818" points="55,340.97,59,331.97,55,335.97,51,331.97,55,340.97" style="stroke:#181818;stroke-width:1;"/><text fill="#000000" font-family="sans-serif" font-size="13" lengthAdjust="spacing" textLength="115.0259" x="56" y="307.0669">Clonaci&#243;n exitosa</text></g><!--link Disponible to Eliminado--><g id="link_Disponible_Eliminado"><path d="M55,391.1 C55,413.24 55,439.86 55,461.97 " fill="none" id="Disponible-to-Eliminado" style="stroke:#181818;stroke-width:1;"/><polygon fill="#181818" points="55,467.97,59,458.97,55,462.97,51,458.97,55,467.97" style="stroke:#181818;stroke-width:1;"/><text fill="#000000" font-family="sans-serif" font-size="13" lengthAdjust="spacing" textLength="163.9155" x="56" y="434.0669">Se ejecuta `cleanRepo()`</text></g><!--link Eliminado to *end*--><g id="link_Eliminado_*end*"><path d="M55,518.46 C55,538.04 55,558.49 55,572.8 " fill="none" id="Eliminado-to-*end*" style="stroke:#181818;stroke-width:1;"/><polygon fill="#181818" points="55,578.8,59,569.8,55,573.8,51,569.8,55,578.8" style="stroke:#181818;stroke-width:1;"/></g><!--SRC=[YzQALT3LjLFmotVEoSzBJCddWhF0uc1s7f1ZfH2Sgf2QbPfSMfAea92UMQAG39HAJU22gm0fTyaiBiZFoqpAIGLg0CiaPnxUdAUGMf5Pab-So8Ka3rBkcfEPcmcs2zNuv9pKnBoWr89y3Sq4BeGYa9PehLW0]--></g></svg>