<svg xmlns="http://www.w3.org/2000/svg" xmlns:xlink="http://www.w3.org/1999/xlink" contentStyleType="text/css" height="356px" preserveAspectRatio="none" style="width:778px;height:356px;background:#FFFFFF;" version="1.1" viewBox="0 0 778 356" width="778px" zoomAndPan="magnify"><defs/><g><line style="stroke:#181818;stroke-width:0.5;stroke-dasharray:5.0,5.0;" x1="34" x2="34" y1="81.2969" y2="276.0938"/><line style="stroke:#181818;stroke-width:0.5;stroke-dasharray:5.0,5.0;" x1="280.3613" x2="280.3613" y1="81.2969" y2="276.0938"/><line style="stroke:#181818;stroke-width:0.5;stroke-dasharray:5.0,5.0;" x1="497.8057" x2="497.8057" y1="81.2969" y2="276.0938"/><line style="stroke:#181818;stroke-width:0.5;stroke-dasharray:5.0,5.0;" x1="727.2207" x2="727.2207" y1="81.2969" y2="276.0938"/><text fill="#000000" font-family="sans-serif" font-size="14" lengthAdjust="spacing" textLength="53.2041" x="5" y="77.9951">Usuario</text><ellipse cx="34.6021" cy="13.5" fill="#E2E2F0" rx="8" ry="8" style="stroke:#181818;stroke-width:0.5;"/><path d="M34.6021,21.5 L34.6021,48.5 M21.6021,29.5 L47.6021,29.5 M34.6021,48.5 L21.6021,63.5 M34.6021,48.5 L47.6021,63.5 " fill="none" style="stroke:#181818;stroke-width:0.5;"/><text fill="#000000" font-family="sans-serif" font-size="14" lengthAdjust="spacing" textLength="53.2041" x="5" y="288.0889">Usuario</text><ellipse cx="34.6021" cy="299.8906" fill="#E2E2F0" rx="8" ry="8" style="stroke:#181818;stroke-width:0.5;"/><path d="M34.6021,307.8906 L34.6021,334.8906 M21.6021,315.8906 L47.6021,315.8906 M34.6021,334.8906 L21.6021,349.8906 M34.6021,334.8906 L47.6021,349.8906 " fill="none" style="stroke:#181818;stroke-width:0.5;"/><rect fill="#E2E2F0" height="30.2969" rx="2.5" ry="2.5" style="stroke:#181818;stroke-width:0.5;" width="77.1094" x="242.3613" y="50"/><text fill="#000000" font-family="sans-serif" font-size="14" lengthAdjust="spacing" textLength="63.1094" x="249.3613" y="69.9951">Frontend</text><rect fill="#E2E2F0" height="30.2969" rx="2.5" ry="2.5" style="stroke:#181818;stroke-width:0.5;" width="77.1094" x="242.3613" y="275.0938"/><text fill="#000000" font-family="sans-serif" font-size="14" lengthAdjust="spacing" textLength="63.1094" x="249.3613" y="295.0889">Frontend</text><rect fill="#E2E2F0" height="30.2969" rx="2.5" ry="2.5" style="stroke:#181818;stroke-width:0.5;" width="74.3613" x="460.8057" y="50"/><text fill="#000000" font-family="sans-serif" font-size="14" lengthAdjust="spacing" textLength="60.3613" x="467.8057" y="69.9951">Backend</text><rect fill="#E2E2F0" height="30.2969" rx="2.5" ry="2.5" style="stroke:#181818;stroke-width:0.5;" width="74.3613" x="460.8057" y="275.0938"/><text fill="#000000" font-family="sans-serif" font-size="14" lengthAdjust="spacing" textLength="60.3613" x="467.8057" y="295.0889">Backend</text><rect fill="#E2E2F0" height="30.2969" rx="2.5" ry="2.5" style="stroke:#181818;stroke-width:0.5;" width="89.1133" x="683.2207" y="50"/><text fill="#000000" font-family="sans-serif" font-size="14" lengthAdjust="spacing" textLength="75.1133" x="690.2207" y="69.9951">GitHub API</text><rect fill="#E2E2F0" height="30.2969" rx="2.5" ry="2.5" style="stroke:#181818;stroke-width:0.5;" width="89.1133" x="683.2207" y="275.0938"/><text fill="#000000" font-family="sans-serif" font-size="14" lengthAdjust="spacing" textLength="75.1133" x="690.2207" y="295.0889">GitHub API</text><polygon fill="#181818" points="268.916,108.4297,278.916,112.4297,268.916,116.4297,272.916,112.4297" style="stroke:#181818;stroke-width:1;"/><line style="stroke:#181818;stroke-width:1;" x1="34.6021" x2="274.916" y1="112.4297" y2="112.4297"/><text fill="#000000" font-family="sans-serif" font-size="13" lengthAdjust="spacing" textLength="222.314" x="41.6021" y="107.3638">Solicita commits de un repositorio</text><polygon fill="#181818" points="485.9863,137.5625,495.9863,141.5625,485.9863,145.5625,489.9863,141.5625" style="stroke:#181818;stroke-width:1;"/><line style="stroke:#181818;stroke-width:1;" x1="280.916" x2="491.9863" y1="141.5625" y2="141.5625"/><text fill="#000000" font-family="sans-serif" font-size="13" lengthAdjust="spacing" textLength="193.0703" x="287.916" y="136.4966">GET /api/commits?repoUrl=...</text><polygon fill="#181818" points="715.7773,166.6953,725.7773,170.6953,715.7773,174.6953,719.7773,170.6953" style="stroke:#181818;stroke-width:1;"/><line style="stroke:#181818;stroke-width:1;" x1="497.9863" x2="721.7773" y1="170.6953" y2="170.6953"/><text fill="#000000" font-family="sans-serif" font-size="13" lengthAdjust="spacing" textLength="205.791" x="504.9863" y="165.6294">Obtener commits desde GitHub</text><polygon fill="#181818" points="508.9863,195.8281,498.9863,199.8281,508.9863,203.8281,504.9863,199.8281" style="stroke:#181818;stroke-width:1;"/><line style="stroke:#181818;stroke-width:1;stroke-dasharray:2.0,2.0;" x1="502.9863" x2="726.7773" y1="199.8281" y2="199.8281"/><text fill="#000000" font-family="sans-serif" font-size="13" lengthAdjust="spacing" textLength="172.8594" x="514.9863" y="194.7622">Devuelve lista de commits</text><polygon fill="#181818" points="291.916,224.9609,281.916,228.9609,291.916,232.9609,287.916,228.9609" style="stroke:#181818;stroke-width:1;"/><line style="stroke:#181818;stroke-width:1;stroke-dasharray:2.0,2.0;" x1="285.916" x2="496.9863" y1="228.9609" y2="228.9609"/><text fill="#000000" font-family="sans-serif" font-size="13" lengthAdjust="spacing" textLength="177.8296" x="297.916" y="223.895">Devuelve commits en JSON</text><polygon fill="#181818" points="45.6021,254.0938,35.6021,258.0938,45.6021,262.0938,41.6021,258.0938" style="stroke:#181818;stroke-width:1;"/><line style="stroke:#181818;stroke-width:1;stroke-dasharray:2.0,2.0;" x1="39.6021" x2="279.916" y1="258.0938" y2="258.0938"/><text fill="#000000" font-family="sans-serif" font-size="13" lengthAdjust="spacing" textLength="189.8901" x="51.6021" y="253.0278">Muestra commits en pantalla</text><!--SRC=[NP3D3e8m40RlVOeDT-1keaQYWYQA2Ve0A-wXiRIaFpo_2rAZdh_fT5filR5mSm6jDA97wsKhUzGUahqrsfD-980EzhlViS3s6RVYRokbhy8TDfV3D9UL4FC5aAxO10jeZ6BS8xIcwwHty2086YprnaakuXRcc2v6kjnT8STUvZEz7hcRLSiioqGnSMN5N7tdNh9VKiVUTuvW8et2BGs1r42WfEC8XkOZaor6VgZe8mt7fZvFQGp5HotW5CXvYz_W-1Me5Bu0]--></g></svg>