<svg xmlns="http://www.w3.org/2000/svg" xmlns:xlink="http://www.w3.org/1999/xlink" contentStyleType="text/css" height="698px" preserveAspectRatio="none" style="width:340px;height:698px;background:#FFFFFF;" version="1.1" viewBox="0 0 340 698" width="340px" zoomAndPan="magnify"><defs/><g><!--class Repository--><g id="elem_Repository"><rect codeLine="1" fill="#F1F1F1" height="80.5938" id="Repository" rx="2.5" ry="2.5" style="stroke:#181818;stroke-width:0.5;" width="150.8516" x="83" y="7"/><ellipse cx="117.7007" cy="23" fill="#ADD1B2" rx="11" ry="11" style="stroke:#181818;stroke-width:1;"/><path d="M120.6694,28.6406 Q120.0913,28.9375 119.4507,29.0781 Q118.8101,29.2344 118.1069,29.2344 Q115.6069,29.2344 114.2788,27.5938 Q112.9663,25.9375 112.9663,22.8125 Q112.9663,19.6875 114.2788,18.0313 Q115.6069,16.375 118.1069,16.375 Q118.8101,16.375 119.4507,16.5313 Q120.1069,16.6875 120.6694,16.9844 L120.6694,19.7031 Q120.0444,19.125 119.4507,18.8594 Q118.8569,18.5781 118.2319,18.5781 Q116.8882,18.5781 116.2007,19.6563 Q115.5132,20.7188 115.5132,22.8125 Q115.5132,24.9063 116.2007,25.9844 Q116.8882,27.0469 118.2319,27.0469 Q118.8569,27.0469 119.4507,26.7813 Q120.0444,26.5 120.6694,25.9219 L120.6694,28.6406 Z " fill="#000000"/><text fill="#000000" font-family="sans-serif" font-size="14" lengthAdjust="spacing" textLength="75.0723" x="136.0786" y="27.8467">Repository</text><line style="stroke:#181818;stroke-width:0.5;" x1="84" x2="232.8516" y1="39" y2="39"/><ellipse cx="94" cy="52.6484" fill="none" rx="3" ry="3" style="stroke:#038048;stroke-width:1;"/><text fill="#000000" font-family="sans-serif" font-size="14" lengthAdjust="spacing" textLength="67.874" x="103" y="55.9951">url: string</text><ellipse cx="94" cy="68.9453" fill="none" rx="3" ry="3" style="stroke:#038048;stroke-width:1;"/><text fill="#000000" font-family="sans-serif" font-size="14" lengthAdjust="spacing" textLength="124.8516" x="103" y="72.292">branches: string[]</text><line style="stroke:#181818;stroke-width:0.5;" x1="84" x2="232.8516" y1="79.5938" y2="79.5938"/></g><!--class Commit--><g id="elem_Commit"><rect codeLine="6" fill="#F1F1F1" height="129.4844" id="Commit" rx="2.5" ry="2.5" style="stroke:#181818;stroke-width:0.5;" width="138.2734" x="89.5" y="165"/><ellipse cx="127.5752" cy="181" fill="#ADD1B2" rx="11" ry="11" style="stroke:#181818;stroke-width:1;"/><path d="M130.544,186.6406 Q129.9659,186.9375 129.3252,187.0781 Q128.6846,187.2344 127.9815,187.2344 Q125.4815,187.2344 124.1534,185.5938 Q122.8409,183.9375 122.8409,180.8125 Q122.8409,177.6875 124.1534,176.0313 Q125.4815,174.375 127.9815,174.375 Q128.6846,174.375 129.3252,174.5313 Q129.9815,174.6875 130.544,174.9844 L130.544,177.7031 Q129.919,177.125 129.3252,176.8594 Q128.7315,176.5781 128.1065,176.5781 Q126.7627,176.5781 126.0752,177.6563 Q125.3877,178.7188 125.3877,180.8125 Q125.3877,182.9063 126.0752,183.9844 Q126.7627,185.0469 128.1065,185.0469 Q128.7315,185.0469 129.3252,184.7813 Q129.919,184.5 130.544,183.9219 L130.544,186.6406 Z " fill="#000000"/><text fill="#000000" font-family="sans-serif" font-size="14" lengthAdjust="spacing" textLength="54.9951" x="146.7031" y="185.8467">Commit</text><line style="stroke:#181818;stroke-width:0.5;" x1="90.5" x2="226.7734" y1="197" y2="197"/><ellipse cx="100.5" cy="210.6484" fill="none" rx="3" ry="3" style="stroke:#038048;stroke-width:1;"/><text fill="#000000" font-family="sans-serif" font-size="14" lengthAdjust="spacing" textLength="82.9746" x="109.5" y="213.9951">hash: string</text><ellipse cx="100.5" cy="226.9453" fill="none" rx="3" ry="3" style="stroke:#038048;stroke-width:1;"/><text fill="#000000" font-family="sans-serif" font-size="14" lengthAdjust="spacing" textLength="112.2734" x="109.5" y="230.292">message: string</text><ellipse cx="100.5" cy="243.2422" fill="none" rx="3" ry="3" style="stroke:#038048;stroke-width:1;"/><text fill="#000000" font-family="sans-serif" font-size="14" lengthAdjust="spacing" textLength="74.1973" x="109.5" y="246.5889">date: Date</text><ellipse cx="100.5" cy="259.5391" fill="none" rx="3" ry="3" style="stroke:#038048;stroke-width:1;"/><text fill="#000000" font-family="sans-serif" font-size="14" lengthAdjust="spacing" textLength="87.2129" x="109.5" y="262.8857">author: User</text><ellipse cx="100.5" cy="275.8359" fill="none" rx="3" ry="3" style="stroke:#038048;stroke-width:1;"/><text fill="#000000" font-family="sans-serif" font-size="14" lengthAdjust="spacing" textLength="73.1514" x="109.5" y="279.1826">files: File[]</text><line style="stroke:#181818;stroke-width:0.5;" x1="90.5" x2="226.7734" y1="286.4844" y2="286.4844"/></g><!--class File--><g id="elem_File"><rect codeLine="14" fill="#F1F1F1" height="80.5938" id="File" rx="2.5" ry="2.5" style="stroke:#181818;stroke-width:0.5;" width="128.9561" x="16" y="371"/><ellipse cx="64.0054" cy="387" fill="#ADD1B2" rx="11" ry="11" style="stroke:#181818;stroke-width:1;"/><path d="M66.9741,392.6406 Q66.396,392.9375 65.7554,393.0781 Q65.1147,393.2344 64.4116,393.2344 Q61.9116,393.2344 60.5835,391.5938 Q59.271,389.9375 59.271,386.8125 Q59.271,383.6875 60.5835,382.0313 Q61.9116,380.375 64.4116,380.375 Q65.1147,380.375 65.7554,380.5313 Q66.4116,380.6875 66.9741,380.9844 L66.9741,383.7031 Q66.3491,383.125 65.7554,382.8594 Q65.1616,382.5781 64.5366,382.5781 Q63.1929,382.5781 62.5054,383.6563 Q61.8179,384.7188 61.8179,386.8125 Q61.8179,388.9063 62.5054,389.9844 Q63.1929,391.0469 64.5366,391.0469 Q65.1616,391.0469 65.7554,390.7813 Q66.3491,390.5 66.9741,389.9219 L66.9741,392.6406 Z " fill="#000000"/><text fill="#000000" font-family="sans-serif" font-size="14" lengthAdjust="spacing" textLength="24.4453" x="84.5054" y="391.8467">File</text><line style="stroke:#181818;stroke-width:0.5;" x1="17" x2="143.9561" y1="403" y2="403"/><ellipse cx="27" cy="416.6484" fill="none" rx="3" ry="3" style="stroke:#038048;stroke-width:1;"/><text fill="#000000" font-family="sans-serif" font-size="14" lengthAdjust="spacing" textLength="81.1836" x="36" y="419.9951">path: string</text><ellipse cx="27" cy="432.9453" fill="none" rx="3" ry="3" style="stroke:#038048;stroke-width:1;"/><text fill="#000000" font-family="sans-serif" font-size="14" lengthAdjust="spacing" textLength="102.9561" x="36" y="436.292">content: string</text><line style="stroke:#181818;stroke-width:0.5;" x1="17" x2="143.9561" y1="443.5938" y2="443.5938"/></g><!--class User--><g id="elem_User"><rect codeLine="19" fill="#F1F1F1" height="80.5938" id="User" rx="2.5" ry="2.5" style="stroke:#181818;stroke-width:0.5;" width="115.0586" x="180" y="371"/><ellipse cx="218.0168" cy="387" fill="#ADD1B2" rx="11" ry="11" style="stroke:#181818;stroke-width:1;"/><path d="M220.9855,392.6406 Q220.4074,392.9375 219.7668,393.0781 Q219.1262,393.2344 218.423,393.2344 Q215.923,393.2344 214.5949,391.5938 Q213.2824,389.9375 213.2824,386.8125 Q213.2824,383.6875 214.5949,382.0313 Q215.923,380.375 218.423,380.375 Q219.1262,380.375 219.7668,380.5313 Q220.423,380.6875 220.9855,380.9844 L220.9855,383.7031 Q220.3605,383.125 219.7668,382.8594 Q219.173,382.5781 218.548,382.5781 Q217.2043,382.5781 216.5168,383.6563 Q215.8293,384.7188 215.8293,386.8125 Q215.8293,388.9063 216.5168,389.9844 Q217.2043,391.0469 218.548,391.0469 Q219.173,391.0469 219.7668,390.7813 Q220.3605,390.5 220.9855,389.9219 L220.9855,392.6406 Z " fill="#000000"/><text fill="#000000" font-family="sans-serif" font-size="14" lengthAdjust="spacing" textLength="31.9102" x="237.1316" y="391.8467">User</text><line style="stroke:#181818;stroke-width:0.5;" x1="181" x2="294.0586" y1="403" y2="403"/><ellipse cx="191" cy="416.6484" fill="none" rx="3" ry="3" style="stroke:#038048;stroke-width:1;"/><text fill="#000000" font-family="sans-serif" font-size="14" lengthAdjust="spacing" textLength="89.0586" x="200" y="419.9951">name: string</text><ellipse cx="191" cy="432.9453" fill="none" rx="3" ry="3" style="stroke:#038048;stroke-width:1;"/><text fill="#000000" font-family="sans-serif" font-size="14" lengthAdjust="spacing" textLength="87.9648" x="200" y="436.292">email: string</text><line style="stroke:#181818;stroke-width:0.5;" x1="181" x2="294.0586" y1="443.5938" y2="443.5938"/></g><!--class Contribution--><g id="elem_Contribution"><rect codeLine="24" fill="#F1F1F1" height="129.4844" id="Contribution" rx="2.5" ry="2.5" style="stroke:#181818;stroke-width:0.5;" width="146.627" x="7" y="545.5"/><ellipse cx="34.4655" cy="561.5" fill="#ADD1B2" rx="11" ry="11" style="stroke:#181818;stroke-width:1;"/><path d="M37.4343,567.1406 Q36.8562,567.4375 36.2155,567.5781 Q35.5749,567.7344 34.8718,567.7344 Q32.3718,567.7344 31.0437,566.0938 Q29.7312,564.4375 29.7312,561.3125 Q29.7312,558.1875 31.0437,556.5313 Q32.3718,554.875 34.8718,554.875 Q35.5749,554.875 36.2155,555.0313 Q36.8718,555.1875 37.4343,555.4844 L37.4343,558.2031 Q36.8093,557.625 36.2155,557.3594 Q35.6218,557.0781 34.9968,557.0781 Q33.653,557.0781 32.9655,558.1563 Q32.278,559.2188 32.278,561.3125 Q32.278,563.4063 32.9655,564.4844 Q33.653,565.5469 34.9968,565.5469 Q35.6218,565.5469 36.2155,565.2813 Q36.8093,565 37.4343,564.4219 L37.4343,567.1406 Z " fill="#000000"/><text fill="#000000" font-family="sans-serif" font-size="14" lengthAdjust="spacing" textLength="86.9258" x="51.2356" y="566.3467">Contribution</text><line style="stroke:#181818;stroke-width:0.5;" x1="8" x2="152.627" y1="577.5" y2="577.5"/><ellipse cx="18" cy="591.1484" fill="none" rx="3" ry="3" style="stroke:#038048;stroke-width:1;"/><text fill="#000000" font-family="sans-serif" font-size="14" lengthAdjust="spacing" textLength="71.6133" x="27" y="594.4951">user: User</text><ellipse cx="18" cy="607.4453" fill="none" rx="3" ry="3" style="stroke:#038048;stroke-width:1;"/><text fill="#000000" font-family="sans-serif" font-size="14" lengthAdjust="spacing" textLength="54.9336" x="27" y="610.792">file: File</text><ellipse cx="18" cy="623.7422" fill="none" rx="3" ry="3" style="stroke:#038048;stroke-width:1;"/><text fill="#000000" font-family="sans-serif" font-size="14" lengthAdjust="spacing" textLength="104.8291" x="27" y="627.0889">linesAdded: int</text><ellipse cx="18" cy="640.0391" fill="none" rx="3" ry="3" style="stroke:#038048;stroke-width:1;"/><text fill="#000000" font-family="sans-serif" font-size="14" lengthAdjust="spacing" textLength="114.8643" x="27" y="643.3857">linesDeleted: int</text><ellipse cx="18" cy="656.3359" fill="none" rx="3" ry="3" style="stroke:#038048;stroke-width:1;"/><text fill="#000000" font-family="sans-serif" font-size="14" lengthAdjust="spacing" textLength="120.627" x="27" y="659.6826">percentage: float</text><line style="stroke:#181818;stroke-width:0.5;" x1="8" x2="152.627" y1="666.9844" y2="666.9844"/></g><!--class Stats--><g id="elem_Stats"><rect codeLine="32" fill="#F1F1F1" height="162.0781" id="Stats" rx="2.5" ry="2.5" style="stroke:#181818;stroke-width:0.5;" width="143.749" x="189.5" y="529"/><ellipse cx="239.2554" cy="545" fill="#ADD1B2" rx="11" ry="11" style="stroke:#181818;stroke-width:1;"/><path d="M242.2241,550.6406 Q241.646,550.9375 241.0054,551.0781 Q240.3647,551.2344 239.6616,551.2344 Q237.1616,551.2344 235.8335,549.5938 Q234.521,547.9375 234.521,544.8125 Q234.521,541.6875 235.8335,540.0313 Q237.1616,538.375 239.6616,538.375 Q240.3647,538.375 241.0054,538.5313 Q241.6616,538.6875 242.2241,538.9844 L242.2241,541.7031 Q241.5991,541.125 241.0054,540.8594 Q240.4116,540.5781 239.7866,540.5781 Q238.4429,540.5781 237.7554,541.6563 Q237.0679,542.7188 237.0679,544.8125 Q237.0679,546.9063 237.7554,547.9844 Q238.4429,549.0469 239.7866,549.0469 Q240.4116,549.0469 241.0054,548.7813 Q241.5991,548.5 242.2241,547.9219 L242.2241,550.6406 Z " fill="#000000"/><text fill="#000000" font-family="sans-serif" font-size="14" lengthAdjust="spacing" textLength="35.7383" x="259.7554" y="549.8467">Stats</text><line style="stroke:#181818;stroke-width:0.5;" x1="190.5" x2="332.249" y1="561" y2="561"/><ellipse cx="200.5" cy="574.6484" fill="none" rx="3" ry="3" style="stroke:#038048;stroke-width:1;"/><text fill="#000000" font-family="sans-serif" font-size="14" lengthAdjust="spacing" textLength="71.6133" x="209.5" y="577.9951">user: User</text><ellipse cx="200.5" cy="590.9453" fill="none" rx="3" ry="3" style="stroke:#038048;stroke-width:1;"/><text fill="#000000" font-family="sans-serif" font-size="14" lengthAdjust="spacing" textLength="87.6299" x="209.5" y="594.292">commits: int</text><ellipse cx="200.5" cy="607.2422" fill="none" rx="3" ry="3" style="stroke:#038048;stroke-width:1;"/><text fill="#000000" font-family="sans-serif" font-size="14" lengthAdjust="spacing" textLength="104.8291" x="209.5" y="610.5889">linesAdded: int</text><ellipse cx="200.5" cy="623.5391" fill="none" rx="3" ry="3" style="stroke:#038048;stroke-width:1;"/><text fill="#000000" font-family="sans-serif" font-size="14" lengthAdjust="spacing" textLength="114.8643" x="209.5" y="626.8857">linesDeleted: int</text><ellipse cx="200.5" cy="639.8359" fill="none" rx="3" ry="3" style="stroke:#038048;stroke-width:1;"/><text fill="#000000" font-family="sans-serif" font-size="14" lengthAdjust="spacing" textLength="117.749" x="209.5" y="643.1826">pullRequests: int</text><ellipse cx="200.5" cy="656.1328" fill="none" rx="3" ry="3" style="stroke:#038048;stroke-width:1;"/><text fill="#000000" font-family="sans-serif" font-size="14" lengthAdjust="spacing" textLength="70.6768" x="209.5" y="659.4795">issues: int</text><ellipse cx="200.5" cy="672.4297" fill="none" rx="3" ry="3" style="stroke:#038048;stroke-width:1;"/><text fill="#000000" font-family="sans-serif" font-size="14" lengthAdjust="spacing" textLength="101.2266" x="209.5" y="675.7764">comments: int</text><line style="stroke:#181818;stroke-width:0.5;" x1="190.5" x2="332.249" y1="683.0781" y2="683.0781"/></g><!--link Repository to Commit--><g id="link_Repository_Commit"><path codeLine="42" d="M158.5,88 C158.5,110.46 158.5,139.12 158.5,164.69 " fill="none" id="Repository-Commit" style="stroke:#181818;stroke-width:1;"/><text fill="#000000" font-family="sans-serif" font-size="13" lengthAdjust="spacing" textLength="32.9443" x="159.5" y="131.0669">tiene</text><text fill="#000000" font-family="sans-serif" font-size="13" lengthAdjust="spacing" textLength="8.271" x="149.8959" y="107.7599">1</text><text fill="#000000" font-family="sans-serif" font-size="13" lengthAdjust="spacing" textLength="6.5" x="152.1843" y="153.8288">*</text></g><!--link Commit to File--><g id="link_Commit_File"><path codeLine="43" d="M130.89,294.21 C119.8,319.8 107.37,348.5 97.63,370.98 " fill="none" id="Commit-File" style="stroke:#181818;stroke-width:1;"/><text fill="#000000" font-family="sans-serif" font-size="13" lengthAdjust="spacing" textLength="55.7832" x="118.5" y="337.0669">modifica</text><text fill="#000000" font-family="sans-serif" font-size="13" lengthAdjust="spacing" textLength="8.271" x="119.235" y="314.6059">1</text><text fill="#000000" font-family="sans-serif" font-size="13" lengthAdjust="spacing" textLength="6.5" x="94.1053" y="359.8398">*</text></g><!--link Commit to User--><g id="link_Commit_User"><path codeLine="44" d="M186.46,294.21 C197.69,319.8 210.29,348.5 220.15,370.98 " fill="none" id="Commit-User" style="stroke:#181818;stroke-width:1;"/><text fill="#000000" font-family="sans-serif" font-size="13" lengthAdjust="spacing" textLength="87.5786" x="206.5" y="337.0669">realizado_por</text><text fill="#000000" font-family="sans-serif" font-size="13" lengthAdjust="spacing" textLength="8.271" x="181.2302" y="314.6059">1</text><text fill="#000000" font-family="sans-serif" font-size="13" lengthAdjust="spacing" textLength="8.271" x="208.4987" y="359.8398">1</text></g><!--link User to Contribution--><g id="link_User_Contribution"><path codeLine="45" d="M205.73,452.26 C184.4,478.96 155.84,514.7 131.39,545.31 " fill="none" id="User-Contribution" style="stroke:#181818;stroke-width:1;"/><text fill="#000000" font-family="sans-serif" font-size="13" lengthAdjust="spacing" textLength="31.3511" x="179.5" y="495.0669">hace</text><text fill="#000000" font-family="sans-serif" font-size="13" lengthAdjust="spacing" textLength="8.271" x="192.269" y="471.758">1</text><text fill="#000000" font-family="sans-serif" font-size="13" lengthAdjust="spacing" textLength="6.5" x="130.6757" y="534.4619">*</text></g><!--link File to Contribution--><g id="link_File_Contribution"><path codeLine="46" d="M80.5,452.26 C80.5,478.96 80.5,514.7 80.5,545.31 " fill="none" id="File-Contribution" style="stroke:#181818;stroke-width:1;"/><text fill="#000000" font-family="sans-serif" font-size="13" lengthAdjust="spacing" textLength="40.752" x="81.5" y="495.0669">afecta</text><text fill="#000000" font-family="sans-serif" font-size="13" lengthAdjust="spacing" textLength="8.271" x="71.9116" y="471.758">1</text><text fill="#000000" font-family="sans-serif" font-size="13" lengthAdjust="spacing" textLength="6.5" x="74.2196" y="534.4619">*</text></g><!--link User to Stats--><g id="link_User_Stats"><path codeLine="47" d="M242.36,452.26 C245.04,474.24 248.48,502.37 251.69,528.7 " fill="none" id="User-Stats" style="stroke:#181818;stroke-width:1;"/><text fill="#000000" font-family="sans-serif" font-size="13" lengthAdjust="spacing" textLength="32.9443" x="249.5" y="495.0669">tiene</text><text fill="#000000" font-family="sans-serif" font-size="13" lengthAdjust="spacing" textLength="8.271" x="234.5079" y="471.758">1</text><text fill="#000000" font-family="sans-serif" font-size="13" lengthAdjust="spacing" textLength="8.271" x="242.4833" y="517.8606">1</text></g><!--SRC=[ZLB1JiCm3BtdAw8UGJjmpGrjuWE6E264lDHTBQL9YPq38FwTD6ktT8349TPxylDxicCTCEizZe59GdpNdqhhMvsYCvebaZyMV8ZWRO-yaCylwaifMyJRC0maix07xbVA0PdXY2kk1Sd4Bhy5Gf8-HAEV66CXEdAJrKCkjT64PviHP6rZWnVqSkREecdeBF8mh7FW0EH-IhPvLgH34Wf-sKUUSXNmbAz0HnxvlcsnDPgyNBWTEfIQ7J7Q7BCif7C1vEBwA23ykvqj6-QhuVypJCxjyIqXrtfYJbZXoI37cfaSgVeGpLsZDnlTt3JBfOqMGezgXbL3kP3HGsYf8mlN7RcKSnWT4HnzG1jUnn1L8LS-rG5C_bCMLHdzTmzqQ0NMat8vBNKE_0q0]--></g></svg>